<svg width="1457" height="1008" viewBox="0 0 1457 1008" fill="none" xmlns="http://www.w3.org/2000/svg">
<g clip-path="url(#clip0_214_46)">
<rect width="1457" height="1008" fill="#F5F5F5"/>
<g clip-path="url(#clip1_214_46)">
<g clip-path="url(#paint0_diamond_214_46_clip_path)" data-figma-skip-parse="true"><g transform="matrix(0.920642 1.22205 -1.22205 0.920642 175 -36)"><rect x="0" y="0" width="1160.11" height="791.259" fill="url(#paint0_diamond_214_46)" opacity="1" shape-rendering="crispEdges"/><rect x="0" y="0" width="1160.11" height="791.259" transform="scale(1 -1)" fill="url(#paint0_diamond_214_46)" opacity="1" shape-rendering="crispEdges"/><rect x="0" y="0" width="1160.11" height="791.259" transform="scale(-1 1)" fill="url(#paint0_diamond_214_46)" opacity="1" shape-rendering="crispEdges"/><rect x="0" y="0" width="1160.11" height="791.259" transform="scale(-1)" fill="url(#paint0_diamond_214_46)" opacity="1" shape-rendering="crispEdges"/></g></g><rect width="1920" height="1080" transform="translate(-231 -36)" data-figma-gradient-fill="{&#34;type&#34;:&#34;GRADIENT_DIAMOND&#34;,&#34;stops&#34;:[{&#34;color&#34;:{&#34;r&#34;:0.0,&#34;g&#34;:0.26666668057441711,&#34;b&#34;:0.20392157137393951,&#34;a&#34;:1.0},&#34;position&#34;:0.10576923191547394},{&#34;color&#34;:{&#34;r&#34;:0.0,&#34;g&#34;:0.39215686917304993,&#34;b&#34;:0.32941177487373352,&#34;a&#34;:1.0},&#34;position&#34;:0.70673078298568726}],&#34;stopsVar&#34;:[{&#34;color&#34;:{&#34;r&#34;:0.0,&#34;g&#34;:0.26666668057441711,&#34;b&#34;:0.20392157137393951,&#34;a&#34;:1.0},&#34;position&#34;:0.10576923191547394},{&#34;color&#34;:{&#34;r&#34;:0.0,&#34;g&#34;:0.39215686917304993,&#34;b&#34;:0.32941177487373352,&#34;a&#34;:1.0},&#34;position&#34;:0.70673078298568726}],&#34;transform&#34;:{&#34;m00&#34;:1841.2840576171875,&#34;m01&#34;:-2444.09667968750,&#34;m02&#34;:476.40634155273438,&#34;m10&#34;:2444.0974121093750,&#34;m11&#34;:1841.2839355468750,&#34;m12&#34;:-2178.6906738281250},&#34;opacity&#34;:1.0,&#34;blendMode&#34;:&#34;NORMAL&#34;,&#34;visible&#34;:true}"/>
<g clip-path="url(#paint1_diamond_214_46_clip_path)" data-figma-skip-parse="true"><g transform="matrix(-3.073 1.242 -1.242 -3.073 2093.5 -149)"><rect x="0" y="0" width="785.481" height="288.371" fill="url(#paint1_diamond_214_46)" opacity="1" shape-rendering="crispEdges"/><rect x="0" y="0" width="785.481" height="288.371" transform="scale(1 -1)" fill="url(#paint1_diamond_214_46)" opacity="1" shape-rendering="crispEdges"/><rect x="0" y="0" width="785.481" height="288.371" transform="scale(-1 1)" fill="url(#paint1_diamond_214_46)" opacity="1" shape-rendering="crispEdges"/><rect x="0" y="0" width="785.481" height="288.371" transform="scale(-1)" fill="url(#paint1_diamond_214_46)" opacity="1" shape-rendering="crispEdges"/></g></g><rect width="1920" height="1080" transform="translate(-231 -36)" data-figma-gradient-fill="{&#34;type&#34;:&#34;GRADIENT_DIAMOND&#34;,&#34;stops&#34;:[{&#34;color&#34;:{&#34;r&#34;:0.63131010532379150,&#34;g&#34;:0.91826921701431274,&#34;b&#34;:0.85496938228607178,&#34;a&#34;:1.0},&#34;position&#34;:0.0},{&#34;color&#34;:{&#34;r&#34;:0.0,&#34;g&#34;:0.49038460850715637,&#34;b&#34;:0.41192308068275452,&#34;a&#34;:1.0},&#34;position&#34;:0.71634614467620850}],&#34;stopsVar&#34;:[{&#34;color&#34;:{&#34;r&#34;:0.63131010532379150,&#34;g&#34;:0.91826921701431274,&#34;b&#34;:0.85496938228607178,&#34;a&#34;:1.0},&#34;position&#34;:0.0},{&#34;color&#34;:{&#34;r&#34;:0.0,&#34;g&#34;:0.49038460850715637,&#34;b&#34;:0.41192308068275452,&#34;a&#34;:1.0},&#34;position&#34;:0.71634614467620850}],&#34;transform&#34;:{&#34;m00&#34;:-6146.0,&#34;m01&#34;:-2484.0002441406250,&#34;m02&#34;:6408.50,&#34;m10&#34;:2484.0,&#34;m11&#34;:-6145.999511718750,&#34;m12&#34;:1681.9996337890625},&#34;opacity&#34;:1.0,&#34;blendMode&#34;:&#34;NORMAL&#34;,&#34;visible&#34;:true}"/>
<path d="M74.73 -32.22C83.76 -33.51 92.86 -34.77 101.95 -36H-231V55.43C-192.54 34.77 -152.06 18.02 -110.02 5.45C-46.6 -13.51 18.96 -24.23 74.73 -32.22Z" fill="url(#paint2_linear_214_46)" fill-opacity="0.48" style="mix-blend-mode:overlay"/>
<path d="M-39.46 153.6C23.95 134.64 89.52 123.92 145.29 115.93C168.21 112.65 191.54 109.61 214.1 106.67C261.91 100.44 311.36 94.01 358.78 84.95C410.9 75 455.29 62.82 494.5 47.71C541.85 29.47 589.23 2.09 639.34 -36H482.33C474.62 -32.54 466.92 -29.33 459.22 -26.37C420.01 -11.27 375.62 0.919998 323.5 10.87C276.08 19.93 226.64 26.36 178.82 32.59C156.26 35.53 132.93 38.56 110 41.85C54.23 49.84 -11.33 60.57 -74.75 79.52C-129.86 96 -182.3 119.64 -231 149.9V247.47C-226.73 244.45 -222.43 241.46 -218.1 238.51C-163.23 201.2 -103.13 172.63 -39.46 153.6Z" fill="url(#paint3_linear_214_46)" fill-opacity="0.48" style="mix-blend-mode:overlay"/>
<path d="M31.1403 301.83C94.5503 282.87 160.12 272.15 215.89 264.16C238.82 260.88 262.14 257.84 284.71 254.9C332.52 248.67 381.96 242.24 429.39 233.18C481.51 223.23 525.9 211.05 565.11 195.94C612.58 177.65 660.09 150.17 710.36 111.93C756.72 76.66 801.27 35.4 842.93 -3.83C850.38 -10.84 857.98 -18.04 865.33 -25.01C869.19 -28.67 873.06 -32.33 876.94 -36H762.46C734.27 -10.34 705.04 14.99 675.05 37.81C624.79 76.05 577.28 103.54 529.8 121.82C490.59 136.92 446.2 149.11 394.08 159.06C346.66 168.12 297.22 174.55 249.4 180.78C226.84 183.72 203.51 186.75 180.58 190.04C124.81 198.03 59.2502 208.76 -4.16977 227.71C-67.8398 246.74 -127.94 275.31 -182.81 312.62C-199.33 323.85 -215.36 335.65 -231.01 347.85V450.64C-204.36 428.15 -176.68 406.57 -147.51 386.74C-92.6398 349.43 -32.5397 320.86 31.1302 301.83H31.1403Z" fill="url(#paint4_linear_214_46)" fill-opacity="0.48" style="mix-blend-mode:overlay"/>
<path d="M101.741 450.07C165.151 431.11 230.721 420.39 286.491 412.4C309.421 409.11 332.751 406.08 355.311 403.14C403.121 396.91 452.561 390.48 499.991 381.42C552.111 371.47 596.501 359.29 635.711 344.18C683.181 325.89 730.691 298.41 780.961 260.17C827.321 224.9 871.871 183.64 913.531 144.41C920.981 137.4 928.581 130.2 935.931 123.23C994.711 67.57 1054.92 10.58 1123.31 -35.99H993.121C961.311 -8.32999 930.791 20.57 900.641 49.12C893.291 56.08 885.681 63.28 878.241 70.3C836.581 109.54 792.031 150.79 745.671 186.06C695.411 224.3 647.901 251.79 600.421 270.07C561.211 285.17 516.821 297.36 464.701 307.31C417.281 316.37 367.841 322.8 320.021 329.03C297.461 331.97 274.131 335.01 251.201 338.29C195.431 346.28 129.871 357.01 66.4507 375.96C2.78075 394.99 -57.3193 423.56 -112.189 460.87C-154.449 489.6 -193.569 522 -230.989 555.52V661.93C-182.899 617.14 -132.609 572.88 -76.8893 534.99C-22.0193 497.68 38.0807 469.11 101.751 450.08L101.741 450.07Z" fill="url(#paint5_linear_214_46)" fill-opacity="0.48" style="mix-blend-mode:overlay"/>
<path d="M1249.74 -14.31C1141.07 36.44 1054.72 118.21 971.2 197.29C963.85 204.25 956.24 211.45 948.8 218.47C907.14 257.71 862.59 298.96 816.23 334.23C765.97 372.47 718.46 399.96 670.98 418.24C631.77 433.34 587.38 445.53 535.26 455.48C487.84 464.54 438.4 470.97 390.58 477.2C368.02 480.14 344.69 483.17 321.76 486.46C265.99 494.45 200.43 505.18 137.01 524.13C73.34 543.16 13.24 571.73 -41.63 609.04C-111.11 656.3 -172.13 713.45 -231 769.19V876.61C-221.34 867.53 -211.76 858.46 -202.26 849.47C-141.37 791.78 -78.4 732.13 -6.34 683.13C48.53 645.82 108.64 617.25 172.3 598.22C235.71 579.26 301.28 568.54 357.05 560.55C379.98 557.26 403.31 554.23 425.87 551.29C473.68 545.06 523.12 538.63 570.55 529.57C622.67 519.62 667.06 507.44 706.27 492.33C753.74 474.04 801.25 446.56 851.52 408.32C897.87 373.05 942.43 331.79 984.09 292.56C991.54 285.55 999.14 278.35 1006.49 271.39C1090 192.31 1176.36 110.54 1285.03 59.79C1392.2 9.74 1508.52 -5.4 1621.02 -20.04C1638.23 -22.28 1656.03 -24.6 1673.33 -26.99C1678.48 -27.7 1683.73 -28.44 1689.02 -29.19V-36H1302.47C1284.7 -29.58 1267.11 -22.41 1249.76 -14.31H1249.74Z" fill="url(#paint6_linear_214_46)" fill-opacity="0.48" style="mix-blend-mode:overlay"/>
<path d="M-131.699 997.62C-70.8093 939.93 -7.83926 880.28 64.2207 831.28C119.091 793.97 179.191 765.4 242.861 746.37C306.281 727.41 371.841 716.69 427.611 708.7C450.531 705.41 473.861 702.38 496.431 699.44C544.241 693.21 593.681 686.78 641.111 677.72C693.231 667.77 737.621 655.59 776.831 640.48C824.301 622.19 871.811 594.71 922.081 556.47C968.431 521.2 1012.99 479.94 1054.65 440.71C1062.1 433.7 1069.7 426.5 1077.05 419.53C1160.56 340.45 1246.92 258.68 1355.59 207.93C1461.94 158.26 1577.31 142.97 1689.01 128.43V49.72C1678.05 51.18 1667.06 52.62 1656.29 54.02C1543.8 68.66 1427.47 83.8 1320.3 133.85C1211.63 184.6 1125.28 266.37 1041.77 345.45C1034.42 352.41 1026.81 359.61 1019.37 366.63C977.711 405.87 933.161 447.12 886.801 482.39C836.541 520.63 789.031 548.12 741.551 566.4C702.341 581.51 657.951 593.69 605.831 603.64C558.411 612.7 508.961 619.13 461.151 625.36C438.591 628.3 415.261 631.34 392.341 634.62C336.571 642.61 271.011 653.34 207.591 672.29C143.921 691.32 83.8207 719.89 28.9507 757.2C-43.1093 806.2 -106.079 865.85 -166.969 923.54C-187.909 943.38 -209.289 963.63 -230.989 983.37V1044H-181.059C-164.379 1028.58 -147.909 1012.98 -131.699 997.62Z" fill="url(#paint7_linear_214_46)" fill-opacity="0.48" style="mix-blend-mode:overlay"/>
<path d="M313.42 894.52C376.83 875.56 442.4 864.84 498.17 856.85C521.1 853.56 544.43 850.53 566.99 847.59C614.8 841.36 664.24 834.93 711.67 825.87C763.79 815.92 808.18 803.74 847.39 788.63C894.86 770.34 942.37 742.86 992.64 704.62C1038.99 669.35 1083.55 628.09 1125.21 588.86C1132.66 581.85 1140.26 574.65 1147.61 567.68C1231.12 488.6 1317.48 406.83 1426.15 356.08C1510.23 316.82 1599.94 299.04 1689.01 286.13V207.15C1588.47 220.64 1486.06 237.55 1390.87 282C1282.2 332.75 1195.84 414.52 1112.33 493.6C1104.98 500.56 1097.37 507.76 1089.93 514.77C1048.27 554.01 1003.72 595.26 957.36 630.53C907.1 668.77 859.59 696.26 812.11 714.54C772.9 729.64 728.51 741.83 676.39 751.78C628.97 760.84 579.53 767.27 531.71 773.5C509.15 776.44 485.82 779.47 462.89 782.76C407.12 790.75 341.56 801.48 278.14 820.43C214.47 839.46 154.37 868.03 99.5004 905.34C38.9304 946.53 -15.2196 995.24 -67.0996 1043.98H50.5004C77.4004 1021.25 105.33 999.44 134.79 979.41C189.66 942.1 249.76 913.53 313.43 894.5L313.42 894.52Z" fill="url(#paint8_linear_214_46)" fill-opacity="0.48" style="mix-blend-mode:overlay"/>
<path d="M1461.42 430.15C1352.75 480.9 1266.4 562.67 1182.88 641.75C1175.53 648.71 1167.92 655.91 1160.48 662.93C1118.82 702.16 1074.27 743.42 1027.91 778.69C977.65 816.93 930.14 844.42 882.66 862.7C843.45 877.8 799.06 889.98 746.94 899.94C699.52 909 650.08 915.43 602.26 921.66C579.7 924.6 556.37 927.63 533.44 930.92C477.67 938.91 412.1 949.64 348.69 968.59C290.56 985.97 235.41 1011.32 184.49 1043.99H379.81C381.2 1043.56 382.59 1043.12 383.99 1042.7C447.4 1023.74 512.97 1013.02 568.74 1005.03C591.66 1001.75 614.99 998.71 637.56 995.77C685.37 989.54 734.82 983.11 782.24 974.05C834.36 964.1 878.75 951.92 917.96 936.81C965.43 918.52 1012.94 891.04 1063.21 852.8C1109.56 817.53 1154.12 776.27 1195.78 737.04C1203.23 730.03 1210.83 722.83 1218.18 715.86C1301.69 636.78 1388.05 555.01 1496.72 504.26C1558.6 475.36 1623.52 458.11 1689.01 445.87V365.6C1611.64 378.17 1534.41 396.06 1461.43 430.14L1461.42 430.15Z" fill="url(#paint9_linear_214_46)" fill-opacity="0.48" style="mix-blend-mode:overlay"/>
<path d="M1253.48 789.98C1246.13 796.94 1238.52 804.14 1231.08 811.16C1189.42 850.39 1144.87 891.65 1098.51 926.92C1048.25 965.16 1000.74 992.65 953.261 1010.93C919.361 1023.99 881.581 1034.86 838.291 1043.99H1071.14C1091.67 1031.52 1112.49 1017.25 1133.8 1001.03C1180.15 965.76 1224.71 924.5 1266.37 885.27C1273.82 878.26 1281.42 871.06 1288.77 864.1C1372.28 785.02 1458.64 703.25 1567.31 652.5C1606.84 634.04 1647.62 620.34 1688.99 609.65V527.13C1635.53 538.83 1582.74 554.69 1532.01 578.38C1423.34 629.13 1336.99 710.9 1253.47 789.98H1253.48Z" fill="url(#paint10_linear_214_46)" fill-opacity="0.48" style="mix-blend-mode:overlay"/>
<path d="M1324.08 938.21C1316.73 945.17 1309.12 952.37 1301.68 959.39C1271.79 987.54 1240.4 1016.72 1207.93 1044H1325.74C1329.5 1040.48 1333.24 1036.96 1336.95 1033.47C1344.4 1026.46 1352 1019.26 1359.35 1012.29C1442.86 933.21 1529.22 851.44 1637.89 800.69C1654.72 792.83 1671.77 785.84 1689 779.57V693.72C1659.73 702.69 1630.85 713.43 1602.61 726.62C1493.94 777.37 1407.59 859.14 1324.08 938.22V938.21Z" fill="url(#paint11_linear_214_46)" fill-opacity="0.48" style="mix-blend-mode:overlay"/>
<path d="M1439.7 1044H1559.78C1599.87 1011.77 1642.4 982.27 1689.01 958.38V867.68C1683.72 869.97 1678.44 872.31 1673.18 874.77C1583.89 916.47 1509.66 979.12 1439.7 1044.01V1044Z" fill="url(#paint12_linear_214_46)" fill-opacity="0.48" style="mix-blend-mode:overlay"/>
<path d="M110.01 41.85C132.94 38.56 156.27 35.53 178.83 32.59C226.64 26.36 276.08 19.93 323.51 10.87C375.63 0.919998 420.02 -11.26 459.23 -26.37C466.93 -29.34 474.63 -32.55 482.34 -36H101.95C92.86 -34.77 83.77 -33.52 74.73 -32.22C18.96 -24.23 -46.6 -13.5 -110.02 5.45C-152.06 18.02 -192.54 34.77 -231 55.43V149.9C-182.3 119.64 -129.86 96 -74.74 79.52C-11.33 60.56 54.24 49.84 110.01 41.85Z" fill="url(#paint13_linear_214_46)" fill-opacity="0.48" style="mix-blend-mode:overlay"/>
<path d="M-4.1595 227.71C59.2505 208.75 124.821 198.03 180.591 190.04C203.521 186.75 226.851 183.72 249.411 180.78C297.221 174.55 346.661 168.12 394.091 159.06C446.211 149.11 490.6 136.93 529.81 121.82C577.281 103.53 624.79 76.05 675.06 37.81C705.05 14.99 734.28 -10.34 762.47 -36H639.36C589.25 2.08 541.861 29.47 494.521 47.71C455.31 62.81 410.92 75 358.8 84.95C311.38 94.01 261.931 100.44 214.121 106.67C191.561 109.61 168.231 112.65 145.311 115.93C89.5405 123.92 23.9705 134.65 -39.4395 153.6C-103.109 172.63 -163.209 201.2 -218.079 238.51C-222.409 241.46 -226.709 244.44 -230.979 247.47V347.85C-215.329 335.65 -199.299 323.86 -182.779 312.62C-127.909 275.31 -67.8095 246.74 -4.1395 227.71H-4.1595Z" fill="url(#paint14_linear_214_46)" fill-opacity="0.48" style="mix-blend-mode:overlay"/>
<path d="M66.44 375.95C129.85 356.99 195.42 346.27 251.19 338.28C274.11 335 297.44 331.96 320.01 329.02C367.82 322.79 417.26 316.36 464.69 307.3C516.81 297.35 561.2 285.17 600.41 270.06C647.88 251.77 695.39 224.29 745.66 186.05C792.01 150.78 836.57 109.52 878.23 70.29C885.68 63.28 893.28 56.08 900.63 49.11C930.78 20.56 961.31 -8.33 993.11 -36H876.94C873.06 -32.33 869.19 -28.67 865.33 -25.01C857.98 -18.05 850.37 -10.85 842.93 -3.83C801.27 35.41 756.72 76.66 710.36 111.93C660.1 150.17 612.59 177.66 565.11 195.94C525.9 211.04 481.51 223.23 429.39 233.18C381.97 242.24 332.53 248.67 284.71 254.9C262.15 257.84 238.82 260.88 215.89 264.16C160.12 272.15 94.56 282.88 31.14 301.83C-32.53 320.86 -92.63 349.43 -147.5 386.74C-176.67 406.57 -204.35 428.15 -231 450.64V555.5C-193.58 521.99 -154.46 489.59 -112.2 460.85C-57.33 423.54 2.77 394.97 66.44 375.94V375.95Z" fill="url(#paint15_linear_214_46)" fill-opacity="0.48" style="mix-blend-mode:overlay"/>
<path d="M-41.62 609.06C13.25 571.75 73.35 543.18 137.02 524.15C200.43 505.19 266 494.47 321.77 486.48C344.7 483.19 368.03 480.16 390.59 477.22C438.4 470.99 487.84 464.56 535.27 455.5C587.39 445.55 631.78 433.37 670.99 418.26C718.46 399.97 765.97 372.49 816.24 334.25C862.59 298.98 907.15 257.72 948.81 218.49C956.26 211.48 963.86 204.28 971.21 197.31C1054.72 118.23 1141.08 36.46 1249.75 -14.29C1267.1 -22.39 1284.69 -29.57 1302.46 -35.98H1123.31C1054.92 10.59 994.71 67.58 935.93 123.24C928.58 130.2 920.97 137.4 913.53 144.42C871.87 183.65 827.32 224.91 780.96 260.18C730.7 298.42 683.19 325.91 635.71 344.19C596.5 359.29 552.11 371.48 499.99 381.43C452.57 390.49 403.13 396.92 355.31 403.15C332.75 406.09 309.42 409.12 286.49 412.41C230.72 420.4 165.16 431.13 101.74 450.08C38.07 469.11 -22.03 497.68 -76.9 534.99C-132.62 572.88 -182.91 617.14 -231 661.93V769.2C-172.13 713.46 -111.11 656.31 -41.62 609.06Z" fill="url(#paint16_linear_214_46)" fill-opacity="0.48" style="mix-blend-mode:overlay"/>
<path d="M1673.31 -27.01C1656.01 -24.62 1638.22 -22.3 1621 -20.06C1508.51 -5.41996 1392.18 9.72004 1285.01 59.77C1176.34 110.52 1089.98 192.29 1006.47 271.37C999.12 278.33 991.51 285.53 984.07 292.54C942.41 331.78 897.86 373.03 851.5 408.3C801.24 446.54 753.73 474.03 706.25 492.31C667.04 507.41 622.651 519.6 570.531 529.55C523.111 538.61 473.67 545.04 425.85 551.27C403.29 554.21 379.961 557.24 357.031 560.53C301.26 568.52 235.7 579.25 172.28 598.2C108.61 617.23 48.5105 645.8 -6.35953 683.11C-78.4195 732.11 -141.39 791.76 -202.28 849.45C-211.77 858.44 -221.36 867.52 -231.02 876.59V983.35C-209.33 963.61 -187.95 943.36 -167 923.52C-106.11 865.83 -43.1395 806.18 28.9205 757.18C83.7905 719.87 143.89 691.3 207.56 672.27C270.97 653.31 336.54 642.59 392.31 634.6C415.23 631.32 438.56 628.28 461.12 625.34C508.93 619.11 558.38 612.68 605.8 603.62C657.92 593.67 702.31 581.49 741.521 566.38C788.99 548.09 836.5 520.61 886.771 482.37C933.12 447.1 977.68 405.84 1019.34 366.61C1026.79 359.6 1034.39 352.4 1041.74 345.43C1125.25 266.35 1211.61 184.58 1320.27 133.83C1427.44 83.78 1543.76 68.64 1656.26 54C1667.03 52.6 1678.02 51.16 1688.98 49.7V-29.21C1683.69 -28.46 1678.45 -27.72 1673.29 -27.01H1673.31Z" fill="url(#paint17_linear_214_46)" fill-opacity="0.48" style="mix-blend-mode:overlay"/>
<path d="M278.14 820.44C341.56 801.48 407.12 790.76 462.89 782.77C485.82 779.48 509.14 776.45 531.71 773.51C579.52 767.28 628.96 760.85 676.39 751.79C728.51 741.84 772.9 729.66 812.11 714.55C859.58 696.26 907.09 668.78 957.36 630.54C1003.71 595.27 1048.27 554.01 1089.93 514.78C1097.38 507.77 1104.98 500.57 1112.33 493.61C1195.84 414.53 1282.2 332.76 1390.87 282.01C1486.06 237.55 1588.47 220.64 1689.01 207.16V128.44C1577.31 142.98 1461.94 158.27 1355.59 207.94C1246.92 258.69 1160.57 340.46 1077.05 419.54C1069.7 426.5 1062.09 433.7 1054.65 440.72C1012.99 479.96 968.44 521.21 922.08 556.48C871.82 594.72 824.31 622.21 776.83 640.49C737.62 655.59 693.23 667.78 641.11 677.73C593.69 686.79 544.24 693.22 496.43 699.45C473.87 702.39 450.54 705.42 427.61 708.71C371.84 716.7 306.28 727.43 242.86 746.38C179.19 765.41 119.09 793.98 64.2204 831.29C-7.83957 880.29 -70.8096 939.94 -131.7 997.63C-147.91 1012.99 -164.39 1028.59 -181.06 1044.01H-67.0996C-15.2096 995.27 38.9304 946.55 99.5004 905.37C154.37 868.06 214.47 839.49 278.14 820.46V820.44Z" fill="url(#paint18_linear_214_46)" fill-opacity="0.48" style="mix-blend-mode:overlay"/>
<path d="M1426.14 356.07C1317.47 406.82 1231.12 488.59 1147.6 567.67C1140.25 574.63 1132.64 581.83 1125.2 588.85C1083.54 628.09 1038.99 669.34 992.63 704.61C942.37 742.85 894.86 770.34 847.38 788.62C808.17 803.72 763.78 815.91 711.66 825.86C664.24 834.92 614.8 841.35 566.98 847.58C544.42 850.52 521.09 853.55 498.16 856.84C442.39 864.83 376.83 875.56 313.41 894.51C249.74 913.54 189.64 942.11 134.77 979.42C105.31 999.45 77.3805 1021.26 50.4805 1043.99H184.49C235.41 1011.32 290.56 985.96 348.69 968.59C412.1 949.63 477.67 938.91 533.44 930.92C556.37 927.63 579.701 924.6 602.26 921.66C650.07 915.43 699.51 909 746.94 899.94C799.06 889.99 843.451 877.81 882.661 862.7C930.13 844.41 977.641 816.93 1027.91 778.69C1074.26 743.42 1118.82 702.16 1160.48 662.93C1167.93 655.92 1175.53 648.72 1182.88 641.75C1266.39 562.67 1352.75 480.9 1461.42 430.15C1534.4 396.07 1611.63 378.18 1689 365.61V286.13C1599.92 299.04 1510.21 316.82 1426.14 356.08V356.07Z" fill="url(#paint19_linear_214_46)" fill-opacity="0.48" style="mix-blend-mode:overlay"/>
<path d="M1218.18 715.86C1210.83 722.82 1203.22 730.02 1195.78 737.04C1154.12 776.27 1109.57 817.53 1063.21 852.8C1012.95 891.04 965.44 918.53 917.961 936.81C878.751 951.92 834.361 964.1 782.241 974.05C734.821 983.11 685.381 989.54 637.561 995.77C615.001 998.71 591.671 1001.75 568.741 1005.03C512.971 1013.02 447.411 1023.75 383.991 1042.7C382.591 1043.12 381.211 1043.56 379.811 1043.99H838.281C881.571 1034.85 919.351 1023.98 953.251 1010.93C1000.72 992.64 1048.23 965.16 1098.5 926.92C1144.85 891.65 1189.41 850.39 1231.07 811.16C1238.52 804.15 1246.12 796.95 1253.47 789.98C1336.98 710.9 1423.34 629.13 1532.01 578.38C1582.75 554.69 1635.53 538.82 1688.99 527.13V445.87C1623.51 458.12 1558.58 475.36 1496.7 504.26C1388.03 555.01 1301.68 636.78 1218.16 715.86H1218.18Z" fill="url(#paint20_linear_214_46)" fill-opacity="0.48" style="mix-blend-mode:overlay"/>
<path d="M1288.78 864.1C1281.43 871.06 1273.82 878.26 1266.38 885.27C1224.72 924.51 1180.17 965.76 1133.81 1001.03C1112.5 1017.25 1091.68 1031.52 1071.15 1043.99H1207.93C1240.4 1016.71 1271.78 987.53 1301.68 959.38C1309.13 952.37 1316.73 945.17 1324.08 938.2C1407.59 859.12 1493.95 777.35 1602.61 726.6C1630.85 713.41 1659.72 702.67 1689 693.7V609.64C1647.63 620.33 1606.85 634.03 1567.32 652.49C1458.65 703.24 1372.29 785.01 1288.78 864.09V864.1Z" fill="url(#paint21_linear_214_46)" fill-opacity="0.48" style="mix-blend-mode:overlay"/>
<path d="M1359.36 1012.29C1352.01 1019.25 1344.4 1026.45 1336.96 1033.47C1333.25 1036.97 1329.51 1040.48 1325.75 1044H1439.7C1509.66 979.11 1583.89 916.46 1673.18 874.76C1678.43 872.31 1683.71 869.96 1689.01 867.67V779.56C1671.78 785.83 1654.73 792.83 1637.9 800.68C1529.23 851.43 1442.88 933.2 1359.36 1012.28V1012.29Z" fill="url(#paint22_linear_214_46)" fill-opacity="0.48" style="mix-blend-mode:overlay"/>
</g>
</g>
<defs>
<clipPath id="paint0_diamond_214_46_clip_path"><rect width="1920" height="1080" transform="translate(-231 -36)"/></clipPath><clipPath id="paint1_diamond_214_46_clip_path"><rect width="1920" height="1080" transform="translate(-231 -36)"/></clipPath><linearGradient id="paint0_diamond_214_46" x1="0" y1="0" x2="500" y2="500" gradientUnits="userSpaceOnUse">
<stop offset="0.105769" stop-color="#004434"/>
<stop offset="0.706731" stop-color="#006454"/>
</linearGradient>
<linearGradient id="paint1_diamond_214_46" x1="0" y1="0" x2="500" y2="500" gradientUnits="userSpaceOnUse">
<stop stop-color="#A1EADA"/>
<stop offset="0.716346" stop-color="#007D69"/>
</linearGradient>
<linearGradient id="paint2_linear_214_46" x1="-71.0868" y1="-28.9105" x2="-55.4713" y2="39.1155" gradientUnits="userSpaceOnUse">
<stop/>
<stop offset="1" stop-opacity="0"/>
</linearGradient>
<linearGradient id="paint3_linear_214_46" x1="187.017" y1="-14.0198" x2="243.294" y2="192.68" gradientUnits="userSpaceOnUse">
<stop/>
<stop offset="1" stop-opacity="0"/>
</linearGradient>
<linearGradient id="paint4_linear_214_46" x1="301.13" y1="1.73403" x2="424.45" y2="337.606" gradientUnits="userSpaceOnUse">
<stop/>
<stop offset="1" stop-opacity="0"/>
</linearGradient>
<linearGradient id="paint5_linear_214_46" x1="419.47" y1="18.1267" x2="618.092" y2="479.194" gradientUnits="userSpaceOnUse">
<stop/>
<stop offset="1" stop-opacity="0"/>
</linearGradient>
<linearGradient id="paint6_linear_214_46" x1="691.17" y1="34.7637" x2="936.452" y2="652.089" gradientUnits="userSpaceOnUse">
<stop/>
<stop offset="1" stop-opacity="0"/>
</linearGradient>
<linearGradient id="paint7_linear_214_46" x1="691.171" y1="126.816" x2="975.082" y2="782.663" gradientUnits="userSpaceOnUse">
<stop/>
<stop offset="1" stop-opacity="0"/>
</linearGradient>
<linearGradient id="paint8_linear_214_46" x1="776.346" y1="272.038" x2="1001.68" y2="837.709" gradientUnits="userSpaceOnUse">
<stop/>
<stop offset="1" stop-opacity="0"/>
</linearGradient>
<linearGradient id="paint9_linear_214_46" x1="907.099" y1="418.202" x2="1082.46" y2="883.44" gradientUnits="userSpaceOnUse">
<stop/>
<stop offset="1" stop-opacity="0"/>
</linearGradient>
<linearGradient id="paint10_linear_214_46" x1="1246.88" y1="567.207" x2="1410.32" y2="889.016" gradientUnits="userSpaceOnUse">
<stop/>
<stop offset="1" stop-opacity="0"/>
</linearGradient>
<linearGradient id="paint11_linear_214_46" x1="1438.98" y1="720.881" x2="1560.83" y2="921.067" gradientUnits="userSpaceOnUse">
<stop/>
<stop offset="1" stop-opacity="0"/>
</linearGradient>
<linearGradient id="paint12_linear_214_46" x1="1559.44" y1="881.352" x2="1619.95" y2="983.687" gradientUnits="userSpaceOnUse">
<stop/>
<stop offset="1" stop-opacity="0"/>
</linearGradient>
<linearGradient id="paint13_linear_214_46" x1="111.612" y1="-21.5853" x2="141.894" y2="117.42" gradientUnits="userSpaceOnUse">
<stop/>
<stop offset="1" stop-opacity="0"/>
</linearGradient>
<linearGradient id="paint14_linear_214_46" x1="246.167" y1="-6.2363" x2="334.098" y2="266.006" gradientUnits="userSpaceOnUse">
<stop/>
<stop offset="1" stop-opacity="0"/>
</linearGradient>
<linearGradient id="paint15_linear_214_46" x1="356.93" y1="9.86486" x2="517.813" y2="408.16" gradientUnits="userSpaceOnUse">
<stop/>
<stop offset="1" stop-opacity="0"/>
</linearGradient>
<linearGradient id="paint16_linear_214_46" x1="505.509" y1="26.4536" x2="737.6" y2="555.223" gradientUnits="userSpaceOnUse">
<stop/>
<stop offset="1" stop-opacity="0"/>
</linearGradient>
<linearGradient id="paint17_linear_214_46" x1="691.141" y1="49.3039" x2="983.873" y2="713.32" gradientUnits="userSpaceOnUse">
<stop/>
<stop offset="1" stop-opacity="0"/>
</linearGradient>
<linearGradient id="paint18_linear_214_46" x1="717.12" y1="199.433" x2="968.499" y2="813.654" gradientUnits="userSpaceOnUse">
<stop/>
<stop offset="1" stop-opacity="0"/>
</linearGradient>
<linearGradient id="paint19_linear_214_46" x1="837.449" y1="344.894" x2="1037.1" y2="861.277" gradientUnits="userSpaceOnUse">
<stop/>
<stop offset="1" stop-opacity="0"/>
</linearGradient>
<linearGradient id="paint20_linear_214_46" x1="1008.6" y1="492.248" x2="1164.74" y2="901.083" gradientUnits="userSpaceOnUse">
<stop/>
<stop offset="1" stop-opacity="0"/>
</linearGradient>
<linearGradient id="paint21_linear_214_46" x1="1367.9" y1="643.319" x2="1516.5" y2="896.188" gradientUnits="userSpaceOnUse">
<stop/>
<stop offset="1" stop-opacity="0"/>
</linearGradient>
<linearGradient id="paint22_linear_214_46" x1="1500.22" y1="800.065" x2="1592.2" y2="951.211" gradientUnits="userSpaceOnUse">
<stop/>
<stop offset="1" stop-opacity="0"/>
</linearGradient>
<clipPath id="clip0_214_46">
<rect width="1457" height="1008" fill="white"/>
</clipPath>
<clipPath id="clip1_214_46">
<rect width="1920" height="1080" fill="white" transform="translate(-231 -36)"/>
</clipPath>
</defs>
</svg>
