<svg width="690" height="386" viewBox="0 0 690 386" fill="none" xmlns="http://www.w3.org/2000/svg">
<path d="M635.609 0H54.3945V385.032H635.609V0Z" fill="#EAEAEA"/>
<path d="M404.854 108.351H102.04V342.031H404.854V108.351Z" fill="#898D8D"/>
<path d="M391.444 121.757H115.444V328.625H391.444V121.757Z" fill="white"/>
<path d="M378.048 135.163H128.859V315.216H378.048V135.163Z" fill="#A4D8E5"/>
<path d="M295.052 135.163L128.859 301.356V315.214H135.618L315.67 135.163H295.052Z" fill="#CFEAF1"/>
<path d="M264.098 135.163H229.661L128.859 235.962V270.4L264.098 135.163Z" fill="#CFEAF1"/>
<path d="M378.047 268.086V171.74L234.571 315.215H330.916L378.047 268.086Z" fill="#CFEAF1"/>
<path d="M367.571 135.163H346.954L166.902 315.214H187.52L367.571 135.163Z" fill="#CFEAF1"/>
<path d="M385.982 222.582H120.906V227.798H385.982V222.582Z" fill="white"/>
<path d="M187.055 113.481H181.839V325.154H187.055V113.481Z" fill="white"/>
<path d="M325.054 113.481H319.838V325.154H325.054V113.481Z" fill="white"/>
<path d="M256.052 113.481H250.836V325.154H256.052V113.481Z" fill="white"/>
<path d="M635.609 328.625H54.3945V385.031H635.609V328.625Z" fill="#79B33F"/>
<path d="M580.544 81.6304H422.804V385.03H580.544V81.6304Z" fill="#898D8D"/>
<path d="M565.893 76.2676H437.441V385.032H565.893V76.2676Z" fill="white"/>
<path d="M450.853 371.633H552.492V89.6812H450.853V371.633Z" fill="#A4D8E5"/>
<path d="M552.492 173.115H533.134L450.853 255.396V282.48L552.492 180.839V173.115Z" fill="#CFEAF1"/>
<path d="M552.492 232.606V205.521L450.853 307.163V334.247L552.492 232.606Z" fill="#CFEAF1"/>
<path d="M484.799 371.633H552.493V303.939L484.799 371.633Z" fill="#CFEAF1"/>
<path d="M565.893 240.434H437.441V267.237H565.893V240.434Z" fill="white"/>
<path d="M478.489 253.193C478.489 254.888 477.131 256.25 475.425 256.25H448.599C446.907 256.25 445.549 254.888 445.549 253.193C445.549 251.506 446.907 250.136 448.599 250.136H475.425C477.129 250.136 478.489 251.506 478.489 253.193Z" fill="#B7BCBC"/>
<path opacity="0.2" d="M635.609 171.951H598.452H552.452H506.444H460.447H414.437H368.453H322.448H276.449H230.447H184.45H138.439H92.4419H54.3965V208.753C58.4427 212.278 63.6557 214.488 69.4425 214.488C82.1446 214.488 92.4419 204.184 92.4419 191.489C92.4419 204.184 102.739 214.488 115.439 214.488C128.143 214.488 138.439 204.184 138.439 191.489C138.439 204.184 148.736 214.488 161.445 214.488C174.153 214.488 184.448 204.184 184.448 191.489C184.448 204.184 194.738 214.488 207.447 214.488C220.15 214.488 230.447 204.184 230.447 191.489C230.447 204.184 240.744 214.488 253.446 214.488C266.155 214.488 276.449 204.184 276.449 191.489C276.449 204.184 286.748 214.488 299.45 214.488C312.15 214.488 322.449 204.184 322.449 191.489C322.449 204.184 332.747 214.488 345.452 214.488C358.146 214.488 368.457 204.184 368.457 191.489C368.457 204.184 378.754 214.488 391.449 214.488C404.148 214.488 414.442 204.184 414.442 191.489C414.442 204.184 424.739 214.488 437.446 214.488C450.168 214.488 460.451 204.184 460.451 191.489C460.451 204.184 470.748 214.488 483.456 214.488C496.151 214.488 506.448 204.184 506.448 191.489C506.448 204.184 516.745 214.488 529.453 214.488C542.162 214.488 552.454 204.184 552.454 191.489C552.454 204.184 562.751 214.488 575.446 214.488C588.145 214.488 598.456 204.184 598.456 191.489C598.456 204.184 608.75 214.488 621.448 214.488C626.818 214.488 631.692 212.565 635.613 209.489V171.951H635.609Z" fill="#22344E"/>
<path d="M635.609 19.8638H54.3945V68.1473H635.609V19.8638Z" fill="#CCCCCC"/>
<path d="M651.553 0H38.4521V56.4056H651.553V0Z" fill="#EAEAEA"/>
<path d="M651.553 20.3022H38.4521V36.1046H651.553V20.3022Z" fill="#79B33F"/>
<path d="M591.02 76.2676H98.0888L0.00195312 150.687H689.128L591.02 76.2676Z" fill="white"/>
<path d="M591.02 76.2676H558.163L643.171 150.687H689.128L591.02 76.2676Z" fill="#79B33F"/>
<path d="M525.292 76.2676H492.445L551.294 150.687H597.24L525.292 76.2676Z" fill="#79B33F"/>
<path d="M459.574 76.2676H426.716L459.418 150.687H505.351L459.574 76.2676Z" fill="#79B33F"/>
<path d="M393.842 76.2676H360.997L367.528 150.687H413.471L393.842 76.2676Z" fill="#79B33F"/>
<path d="M295.268 76.2676L275.646 150.687H321.592L328.128 76.2676H295.268Z" fill="#79B33F"/>
<path d="M229.538 76.2676L183.767 150.687H229.699L262.41 76.2676H229.538Z" fill="#79B33F"/>
<path d="M163.815 76.2676L91.8799 150.687H137.825L196.679 76.2676H163.815Z" fill="#79B33F"/>
<path d="M98.0888 76.2676L0.00195312 150.687H45.9346L130.947 76.2676H98.0888Z" fill="#79B33F"/>
<path d="M45.9918 170.224C45.9918 182.92 35.6945 193.217 22.9924 193.217C10.2903 193.217 0 182.92 0 170.224V150.687H45.9901L45.9918 170.224Z" fill="#417211"/>
<path d="M91.9962 170.224C91.9962 182.92 81.6988 193.217 68.9968 193.217C56.2947 193.217 45.9922 182.92 45.9922 170.224V150.687H91.9962V170.224Z" fill="#DBDBDB"/>
<path d="M137.994 170.224C137.994 182.92 127.697 193.217 114.994 193.217C102.292 193.217 91.9951 182.92 91.9951 170.224V150.687H137.992V170.224H137.994Z" fill="#417211"/>
<path d="M184.003 170.224C184.003 182.92 173.707 193.217 161 193.217C148.291 193.217 137.995 182.92 137.995 170.224V150.687H184.004V170.224H184.003Z" fill="#DBDBDB"/>
<path d="M230.002 170.224C230.002 182.92 219.703 193.217 207.001 193.217C194.292 193.217 184.002 182.92 184.002 170.224V150.687H230.001V170.224H230.002Z" fill="#417211"/>
<path d="M276.004 170.224C276.004 182.92 265.707 193.217 253.001 193.217C240.297 193.217 230.002 182.92 230.002 170.224V150.687H276.004V170.224Z" fill="#DBDBDB"/>
<path d="M322 170.224C322 182.92 311.702 193.217 299 193.217C286.298 193.217 276.001 182.92 276.001 170.224V150.687H321.998V170.224H322Z" fill="#417211"/>
<path d="M368.005 170.224C368.005 182.92 357.697 193.217 345.002 193.217C332.296 193.217 321.999 182.92 321.999 170.224V150.687H368.005V170.224Z" fill="#DBDBDB"/>
<path d="M413.994 170.224C413.994 182.92 403.697 193.217 390.998 193.217C378.303 193.217 368.006 182.92 368.006 170.224V150.687H413.992V170.224H413.994Z" fill="#417211"/>
<path d="M460.005 170.224C460.005 182.92 449.718 193.217 436.997 193.217C424.291 193.217 413.994 182.92 413.994 170.224V150.687H460.005V170.224Z" fill="#DBDBDB"/>
<path d="M505.998 170.224C505.998 182.92 495.701 193.217 483.006 193.217C470.297 193.217 460.005 182.92 460.005 170.224V150.687H505.998V170.224Z" fill="#417211"/>
<path d="M552.01 170.224C552.01 182.92 541.716 193.217 529.006 193.217C516.3 193.217 506.001 182.92 506.001 170.224V150.687H552.012V170.224H552.01Z" fill="#DBDBDB"/>
<path d="M598.007 170.224C598.007 182.92 587.699 193.217 575.002 193.217C562.307 193.217 552.01 182.92 552.01 170.224V150.687H598.007V170.224Z" fill="#417211"/>
<path d="M644.005 170.224C644.005 182.92 633.708 193.217 621 193.217C608.305 193.217 598.008 182.92 598.008 170.224V150.687H644.005V170.224Z" fill="#DBDBDB"/>
<path d="M690.001 170.224C690.001 182.92 679.718 193.217 667.009 193.217C654.299 193.217 644.004 182.92 644.004 170.224V150.687H690.001V170.224Z" fill="#417211"/>
</svg>
