<svg width="29" height="25" viewBox="0 0 29 25" fill="none" xmlns="http://www.w3.org/2000/svg">
<path d="M20.9316 0.152344C23.0021 0.136532 24.9945 0.944613 26.4697 2.39746C27.9447 3.8502 28.7829 5.8292 28.7988 7.89941C28.8146 9.96986 28.0066 11.9623 26.5537 13.4375L26.5527 13.4385L15.6465 24.3467C15.3308 24.6621 14.9024 24.8389 14.4561 24.8389C14.0097 24.8388 13.5813 24.6622 13.2656 24.3467L2.35645 13.4365L2.35449 13.4355L2.46484 13.3281L2.35449 13.4346C0.927682 11.9629 0.136278 9.9892 0.152344 7.93945C0.168416 5.88968 0.990683 3.92864 2.44043 2.47949L2.70215 2.21777V2.2334C3.36946 1.62498 4.13767 1.13539 4.97363 0.789062C5.9207 0.396751 6.93583 0.195371 7.96094 0.195312C8.98622 0.195312 10.002 0.396673 10.9492 0.789062C11.8965 1.18152 12.7575 1.75728 13.4824 2.48242L13.96 2.95117C14.1106 3.0965 14.2764 3.25332 14.4561 3.42285C14.8487 3.0509 15.1741 2.73707 15.4307 2.48047C16.8833 1.00607 18.8619 0.168269 20.9316 0.152344ZM20.9375 2.30566C19.4354 2.3174 17.9992 2.92564 16.9453 3.99609L16.9443 3.99707C16.6491 4.2923 16.2747 4.65411 15.8213 5.08203L14.5615 6.26855L14.4561 6.36719L14.3516 6.26855L13.0918 5.08203C12.6373 4.65303 12.262 4.29123 11.9668 3.99707H11.9658C10.9037 2.93494 9.46303 2.33789 7.96094 2.33789C6.45903 2.33801 5.01907 2.93507 3.95703 3.99707C1.7692 6.18639 1.74361 9.72472 3.87402 11.9238L14.4551 22.5049L25.0186 11.9424C26.072 10.872 26.6572 9.42662 26.6455 7.9248C26.6337 6.42285 26.0254 4.98736 24.9551 3.93359C24.4251 3.41179 23.7978 2.99898 23.1084 2.71973C22.419 2.44047 21.6813 2.29985 20.9375 2.30566Z" fill="#616161" stroke="#616161" stroke-width="0.306146"/>
</svg>
