<svg width="34" height="48" viewBox="0 0 34 48" fill="none" xmlns="http://www.w3.org/2000/svg">
<g filter="url(#filter0_i_395_37)">
<path d="M2.49746 43.8266H11.072C11.072 43.8266 12.5867 43.8185 12.816 43.7297C13.2342 43.5677 13.3737 43.3055 13.3973 42.8577C13.4237 42.3589 12.9129 41.6466 12.9129 41.6466C12.9129 41.6466 12.2139 40.5774 11.7987 39.9026C11.2527 39.0152 10.959 38.508 10.4907 37.5773C9.8889 36.3812 9.60604 35.7299 9.1343 34.4768C8.65792 33.2114 8.45605 32.4422 8.16538 31.1342C7.98891 30.3401 7.9716 29.8646 7.9716 29.0511V29.0416C7.9716 28.1757 7.9716 27.7068 8.11694 26.8711C8.31071 25.7569 8.60627 25.1448 9.23115 24.1098C9.88167 23.0323 10.3105 22.447 11.3142 21.6876C12.3736 20.8862 13.0972 20.5299 14.3663 20.1374C15.537 19.7752 16.2425 19.6933 17.4666 19.7498C18.8192 19.8123 19.6399 19.9817 20.8577 20.5734C21.8253 21.0435 22.2626 21.4454 23.0862 22.1236C23.9098 22.8018 24.055 23.1409 24.5879 23.916C25.1208 24.6911 25.4707 25.5614 25.7506 26.7742C26.0413 28.0338 26.1121 28.9244 25.9444 30.1653C25.7021 31.9578 25.4695 32.8167 24.8786 34.4768C23.8613 37.335 22.8924 38.9009 21.4391 41.1621C20.2341 43.0369 18.2683 45.5221 18.0964 45.7643C17.9245 46.0065 17.999 46.6544 18.4356 46.927C18.7886 47.1474 19.1626 47.2658 19.5013 47.0239C19.8404 46.7817 20.3769 46.1326 20.8093 45.5705C21.2937 44.9408 21.5178 44.5857 22.2142 44.2141C22.7647 43.9203 23.7644 43.8266 23.7644 43.8266C23.7644 43.8266 31.5154 43.8266 31.8061 43.6812C32.6027 43.283 33.048 43.2393 33.5016 42.4701C33.8654 41.8532 33.8892 40.6293 33.8892 40.6293L31.5154 16.2619C31.5154 16.2619 31.4615 15.2407 31.3216 14.857C31.1039 14.2595 30.8044 13.7481 30.3043 13.3552C29.7379 12.9101 28.6088 12.8223 28.6088 12.8223C28.6088 12.8223 5.06496 12.7255 4.629 12.8223C4.19304 12.9192 3.71228 13.1038 3.27257 13.5006C2.86742 13.8661 2.64279 14.0818 2.49746 14.6632C2.35214 15.2446 0.12368 38.7399 0.12368 38.7399C0.12368 38.7399 -0.0692497 40.7046 0.0268153 41.4043C0.135002 42.1924 0.291261 42.7317 0.898809 43.2452C1.40617 43.674 2.49746 43.8266 2.49746 43.8266Z" fill="#E6F2F1"/>
</g>
<g filter="url(#filter1_i_395_37)">
<circle cx="16.9335" cy="28.7607" r="3.82708" fill="#E6F2F1"/>
</g>
<g filter="url(#filter2_i_395_37)">
<path d="M8.40691 7.44531L7.87402 12.9195H12.0402C12.0402 12.9195 12.3309 8.89863 12.4278 8.26886C12.5247 7.63909 12.7231 6.84928 13.0091 6.37954C13.4086 5.72333 13.753 5.43836 14.3655 4.97466C15.1574 4.3752 15.4797 4.29644 16.4971 4.19956C17.2376 4.12903 18.0472 4.13652 18.7255 4.44178C19.6944 4.87777 19.9555 5.19665 20.5664 5.99199C21.093 6.67758 21.293 7.29998 21.4384 7.88131C21.5837 8.46263 21.9228 12.9195 21.9228 12.9195H26.0406C26.0406 12.9195 25.8468 9.67374 25.5077 7.68753C25.3432 6.72409 25.2545 6.16722 24.8779 5.26533C24.439 4.21424 24.1025 3.67806 23.3277 2.84312C22.6019 2.06098 22.1731 1.67324 21.2446 1.14758C20.254 0.586821 19.6031 0.382899 18.4833 0.178696C17.441 -0.0113654 16.8688 -0.0597284 15.8189 0.0818087C14.9094 0.204409 14.386 0.302807 13.542 0.663138C12.3931 1.15363 11.8205 1.63207 10.926 2.50401C10.232 3.18045 9.861 3.60289 9.37579 4.44178C9.02379 5.05036 8.84353 5.41324 8.64913 6.08887C8.50034 6.606 8.40691 7.44531 8.40691 7.44531Z" fill="#E6F2F1"/>
</g>
<defs>
<filter id="filter0_i_395_37" x="0" y="12.7793" width="33.8896" height="34.3784" filterUnits="userSpaceOnUse" color-interpolation-filters="sRGB">
<feFlood flood-opacity="0" result="BackgroundImageFix"/>
<feBlend mode="normal" in="SourceGraphic" in2="BackgroundImageFix" result="shape"/>
<feColorMatrix in="SourceAlpha" type="matrix" values="0 0 0 0 0 0 0 0 0 0 0 0 0 0 0 0 0 0 127 0" result="hardAlpha"/>
<feOffset/>
<feGaussianBlur stdDeviation="0.479756"/>
<feComposite in2="hardAlpha" operator="arithmetic" k2="-1" k3="1"/>
<feColorMatrix type="matrix" values="0 0 0 0 0 0 0 0 0 0.490385 0 0 0 0 0.411923 0 0 0 0.5 0"/>
<feBlend mode="normal" in2="shape" result="effect1_innerShadow_395_37"/>
</filter>
<filter id="filter1_i_395_37" x="13.1064" y="24.9336" width="7.6543" height="7.6543" filterUnits="userSpaceOnUse" color-interpolation-filters="sRGB">
<feFlood flood-opacity="0" result="BackgroundImageFix"/>
<feBlend mode="normal" in="SourceGraphic" in2="BackgroundImageFix" result="shape"/>
<feColorMatrix in="SourceAlpha" type="matrix" values="0 0 0 0 0 0 0 0 0 0 0 0 0 0 0 0 0 0 127 0" result="hardAlpha"/>
<feOffset/>
<feGaussianBlur stdDeviation="0.479756"/>
<feComposite in2="hardAlpha" operator="arithmetic" k2="-1" k3="1"/>
<feColorMatrix type="matrix" values="0 0 0 0 0 0 0 0 0 0.490385 0 0 0 0 0.411923 0 0 0 0.5 0"/>
<feBlend mode="normal" in2="shape" result="effect1_innerShadow_395_37"/>
</filter>
<filter id="filter2_i_395_37" x="7.87402" y="0" width="18.167" height="12.9194" filterUnits="userSpaceOnUse" color-interpolation-filters="sRGB">
<feFlood flood-opacity="0" result="BackgroundImageFix"/>
<feBlend mode="normal" in="SourceGraphic" in2="BackgroundImageFix" result="shape"/>
<feColorMatrix in="SourceAlpha" type="matrix" values="0 0 0 0 0 0 0 0 0 0 0 0 0 0 0 0 0 0 127 0" result="hardAlpha"/>
<feOffset/>
<feGaussianBlur stdDeviation="0.479756"/>
<feComposite in2="hardAlpha" operator="arithmetic" k2="-1" k3="1"/>
<feColorMatrix type="matrix" values="0 0 0 0 0 0 0 0 0 0.490385 0 0 0 0 0.411923 0 0 0 0.5 0"/>
<feBlend mode="normal" in2="shape" result="effect1_innerShadow_395_37"/>
</filter>
</defs>
</svg>
