<svg width="814" height="192" viewBox="0 0 814 192" fill="none" xmlns="http://www.w3.org/2000/svg">
<g filter="url(#filter0_i_170_802)">
<path d="M10.1636 178.356H45.0584C45.0584 178.356 51.2224 178.323 52.1557 177.962C53.8577 177.303 54.4252 176.236 54.5215 174.413C54.6286 172.383 52.55 169.484 52.55 169.484C52.55 169.484 49.7054 165.133 48.0156 162.387C45.7936 158.776 44.5984 156.712 42.6927 152.924C40.2436 148.057 39.0925 145.406 37.1727 140.307C35.2341 135.157 34.4125 132.027 33.2296 126.704C32.5114 123.472 32.441 121.537 32.441 118.226V118.187C32.441 114.664 32.441 112.756 33.0325 109.355C33.8211 104.82 35.0238 102.329 37.5668 98.1173C40.2142 93.7325 41.9593 91.3502 46.0442 88.26C50.3553 84.9986 53.3002 83.5488 58.4645 81.9513C63.229 80.4774 66.0999 80.1441 71.0818 80.3741C76.586 80.6283 79.9259 81.3178 84.882 83.7256C88.8196 85.6386 90.5993 87.2743 93.951 90.0343C97.3026 92.7943 97.8937 94.1744 100.062 97.3287C102.231 100.483 103.655 104.025 104.794 108.96C105.977 114.086 106.265 117.711 105.582 122.761C104.597 130.055 103.65 133.551 101.245 140.307C97.1052 151.938 93.1622 158.311 87.2478 167.513C82.3441 175.143 74.3442 185.256 73.6447 186.242C72.9452 187.228 73.2484 189.864 75.0249 190.973C76.4615 191.871 77.9836 192.352 79.3619 191.368C80.742 190.382 82.9254 187.741 84.6849 185.453C86.6564 182.89 87.5682 181.446 90.4023 179.933C92.6428 178.738 96.711 178.356 96.711 178.356C96.711 178.356 128.254 178.356 129.437 177.765C132.679 176.144 134.491 175.966 136.337 172.836C137.818 170.326 137.915 165.344 137.915 165.344L128.254 66.1796C128.254 66.1796 128.035 62.0239 127.466 60.4623C126.58 58.0307 125.361 55.9498 123.326 54.3508C121.02 52.5395 116.426 52.1821 116.426 52.1821C116.426 52.1821 20.6122 51.788 18.8381 52.1821C17.0639 52.5762 15.1074 53.3276 13.318 54.9422C11.6692 56.4299 10.755 57.3077 10.1636 59.6737C9.5722 62.0396 0.503325 157.656 0.503325 157.656C0.503325 157.656 -0.281817 165.651 0.109127 168.499C0.549401 171.706 1.18531 173.901 3.65777 175.99C5.72253 177.735 10.1636 178.356 10.1636 178.356Z" fill="#E6F2F1"/>
</g>
<g filter="url(#filter1_i_170_802)">
<circle cx="68.911" cy="117.044" r="15.5746" fill="#E6F2F1"/>
</g>
<g filter="url(#filter2_i_170_802)">
<path d="M34.214 30.2993L32.0454 52.5769H49C49 52.5769 50.1829 36.2137 50.5772 33.6508C50.9715 31.0879 51.7792 27.8737 52.943 25.9621C54.5687 23.2916 55.9704 22.1318 58.4631 20.2448C61.6856 17.8052 62.9974 17.4847 67.1375 17.0905C70.1511 16.8034 73.4457 16.8339 76.2063 18.0762C80.1492 19.8505 81.2118 21.1482 83.6978 24.3849C85.8408 27.1749 86.655 29.7078 87.2465 32.0736C87.8379 34.4394 89.218 52.5769 89.218 52.5769H105.975C105.975 52.5769 105.187 39.368 103.807 31.285C103.137 27.3642 102.777 25.098 101.244 21.4277C99.4576 17.1502 98.0883 14.9682 94.9352 11.5703C91.9815 8.38738 90.2367 6.80941 86.4579 4.67021C82.4268 2.38817 79.7776 1.55829 75.2205 0.727278C70.979 -0.0461911 68.6503 -0.243008 64.3775 0.332987C60.6763 0.83192 58.5463 1.23236 55.1116 2.69875C50.4361 4.69485 48.1061 6.64187 44.4657 10.1903C41.6415 12.9431 40.1315 14.6623 38.157 18.0762C36.7245 20.5529 35.9909 22.0296 35.1998 24.7792C34.5942 26.8836 34.214 30.2993 34.214 30.2993Z" fill="#E6F2F1"/>
</g>
<g filter="url(#filter3_i_170_802)">
<path d="M251.221 151.831C253.751 151.831 255.844 152.658 257.499 154.313C259.251 155.87 260.127 157.914 260.127 160.445C260.127 162.878 259.251 164.922 257.499 166.577C255.844 168.134 253.751 168.913 251.221 168.913H203.771C201.24 168.913 199.099 168.085 197.347 166.431C195.692 164.679 194.865 162.537 194.865 160.007V75.6188C194.865 73.0881 195.741 70.9954 197.493 69.3408C199.245 67.5888 201.483 66.7128 204.209 66.7128C206.545 66.7128 208.589 67.5888 210.341 69.3408C212.19 70.9954 213.115 73.0881 213.115 75.6188V154.313L209.903 151.831H251.221ZM351.161 129.931C351.161 137.912 349.36 144.969 345.759 151.101C342.255 157.135 337.486 161.856 331.451 165.263C325.514 168.669 318.846 170.373 311.449 170.373C304.052 170.373 297.336 168.669 291.301 165.263C285.364 161.856 280.594 157.135 276.993 151.101C273.489 144.969 271.737 137.912 271.737 129.931C271.737 121.949 273.489 114.941 276.993 108.907C280.594 102.775 285.364 98.0054 291.301 94.5988C297.336 91.0948 304.052 89.3428 311.449 89.3428C318.846 89.3428 325.514 91.0948 331.451 94.5988C337.486 98.0054 342.255 102.775 345.759 108.907C349.36 114.941 351.161 121.949 351.161 129.931ZM333.641 129.931C333.641 124.967 332.619 120.684 330.575 117.083C328.628 113.384 325.952 110.513 322.545 108.469C319.236 106.425 315.537 105.403 311.449 105.403C307.361 105.403 303.614 106.425 300.207 108.469C296.898 110.513 294.221 113.384 292.177 117.083C290.23 120.684 289.257 124.967 289.257 129.931C289.257 134.797 290.23 139.08 292.177 142.779C294.221 146.38 296.898 149.203 300.207 151.247C303.614 153.291 307.361 154.313 311.449 154.313C315.537 154.313 319.236 153.291 322.545 151.247C325.952 149.203 328.628 146.38 330.575 142.779C332.619 139.08 333.641 134.797 333.641 129.931ZM376.714 168.913C374.184 168.913 372.091 168.085 370.436 166.431C368.782 164.679 367.954 162.537 367.954 160.007V69.7788C367.954 67.2481 368.782 65.1554 370.436 63.5008C372.091 61.7488 374.184 60.8728 376.714 60.8728C379.245 60.8728 381.338 61.7488 382.992 63.5008C384.647 65.1554 385.474 67.2481 385.474 69.7788V160.007C385.474 162.537 384.647 164.679 382.992 166.431C381.338 168.085 379.245 168.913 376.714 168.913ZM423.142 90.8028C425.381 90.8028 427.328 91.7274 428.982 93.5768C430.637 95.4261 431.464 97.2268 431.464 98.9788C431.464 101.315 430.296 103.505 427.96 105.549L384.014 145.991L383.284 125.843L416.718 93.5768C418.568 91.7274 420.709 90.8028 423.142 90.8028ZM425.332 168.767C422.802 168.767 420.66 167.793 418.908 165.847L391.898 137.231L405.184 124.967L431.464 153.583C433.314 155.529 434.238 157.719 434.238 160.153C434.238 162.683 433.216 164.776 431.172 166.431C429.226 167.988 427.279 168.767 425.332 168.767ZM512.995 89.3428C515.526 89.3428 517.618 90.1701 519.273 91.8248C520.928 93.4794 521.755 95.6208 521.755 98.2488V160.007C521.755 162.537 520.928 164.679 519.273 166.431C517.618 168.085 515.526 168.913 512.995 168.913C510.464 168.913 508.372 168.085 506.717 166.431C505.062 164.679 504.235 162.537 504.235 160.007V152.853L507.447 154.167C507.447 155.432 506.766 156.989 505.403 158.839C504.04 160.591 502.191 162.343 499.855 164.095C497.519 165.847 494.745 167.355 491.533 168.621C488.418 169.789 485.012 170.373 481.313 170.373C474.597 170.373 468.514 168.669 463.063 165.263C457.612 161.759 453.281 156.989 450.069 150.955C446.954 144.823 445.397 137.815 445.397 129.931C445.397 121.949 446.954 114.941 450.069 108.907C453.281 102.775 457.564 98.0054 462.917 94.5988C468.27 91.0948 474.208 89.3428 480.729 89.3428C484.914 89.3428 488.759 89.9754 492.263 91.2408C495.767 92.5061 498.784 94.1121 501.315 96.0588C503.943 98.0054 505.938 100.001 507.301 102.045C508.761 103.991 509.491 105.646 509.491 107.009L504.235 108.907V98.2488C504.235 95.7181 505.062 93.6254 506.717 91.9708C508.372 90.2188 510.464 89.3428 512.995 89.3428ZM483.503 154.313C487.786 154.313 491.533 153.242 494.745 151.101C497.957 148.959 500.439 146.039 502.191 142.341C504.04 138.642 504.965 134.505 504.965 129.931C504.965 125.259 504.04 121.073 502.191 117.375C500.439 113.676 497.957 110.756 494.745 108.615C491.533 106.473 487.786 105.403 483.503 105.403C479.318 105.403 475.619 106.473 472.407 108.615C469.195 110.756 466.664 113.676 464.815 117.375C463.063 121.073 462.187 125.259 462.187 129.931C462.187 134.505 463.063 138.642 464.815 142.341C466.664 146.039 469.195 148.959 472.407 151.101C475.619 153.242 479.318 154.313 483.503 154.313ZM551.529 66.7128C553.865 66.7128 555.909 67.5888 557.661 69.3408C559.51 70.9954 560.435 73.0881 560.435 75.6188V160.007C560.435 162.537 559.51 164.679 557.661 166.431C555.812 168.085 553.67 168.913 551.237 168.913C548.512 168.913 546.322 168.085 544.667 166.431C543.012 164.679 542.185 162.537 542.185 160.007V75.6188C542.185 73.0881 543.061 70.9954 544.813 69.3408C546.565 67.5888 548.804 66.7128 551.529 66.7128ZM616.207 66.7128C618.932 66.7128 621.122 67.5888 622.777 69.3408C624.432 70.9954 625.259 73.0881 625.259 75.6188V160.007C625.259 162.537 624.383 164.679 622.631 166.431C620.976 168.085 618.738 168.913 615.915 168.913C613.579 168.913 611.486 168.085 609.637 166.431C607.885 164.679 607.009 162.537 607.009 160.007V75.6188C607.009 73.0881 607.934 70.9954 609.783 69.3408C611.632 67.5888 613.774 66.7128 616.207 66.7128ZM551.091 109.199H616.207V125.989H551.091V109.199ZM703.624 90.8028C706.155 90.8028 708.248 91.6788 709.902 93.4308C711.557 95.0854 712.384 97.1781 712.384 99.7088V136.793C712.384 147.11 709.513 155.286 703.77 161.321C698.028 167.355 689.754 170.373 678.95 170.373C668.146 170.373 659.873 167.355 654.13 161.321C648.485 155.286 645.662 147.11 645.662 136.793V99.7088C645.662 97.1781 646.49 95.0854 648.144 93.4308C649.799 91.6788 651.892 90.8028 654.422 90.8028C656.953 90.8028 659.046 91.6788 660.7 93.4308C662.355 95.0854 663.182 97.1781 663.182 99.7088V136.793C663.182 142.73 664.496 147.159 667.124 150.079C669.752 152.901 673.694 154.313 678.95 154.313C684.304 154.313 688.294 152.901 690.922 150.079C693.55 147.159 694.864 142.73 694.864 136.793V99.7088C694.864 97.1781 695.692 95.0854 697.346 93.4308C699.001 91.6788 701.094 90.8028 703.624 90.8028ZM771.794 89.3428C778.607 89.3428 784.69 91.0948 790.044 94.5988C795.494 98.0054 799.777 102.726 802.892 108.761C806.104 114.795 807.71 121.803 807.71 129.785C807.71 137.766 806.104 144.823 802.892 150.955C799.777 156.989 795.543 161.759 790.19 165.263C784.934 168.669 778.996 170.373 772.378 170.373C768.484 170.373 764.834 169.74 761.428 168.475C758.021 167.209 755.004 165.603 752.376 163.657C749.845 161.71 747.85 159.763 746.39 157.817C745.027 155.773 744.346 154.069 744.346 152.707L748.872 150.809V161.467C748.872 163.997 748.044 166.139 746.39 167.891C744.735 169.545 742.642 170.373 740.112 170.373C737.581 170.373 735.488 169.545 733.834 167.891C732.179 166.236 731.352 164.095 731.352 161.467V69.7788C731.352 67.2481 732.179 65.1554 733.834 63.5008C735.488 61.7488 737.581 60.8728 740.112 60.8728C742.642 60.8728 744.735 61.7488 746.39 63.5008C748.044 65.1554 748.872 67.2481 748.872 69.7788V106.863L746.39 105.549C746.39 104.283 747.071 102.775 748.434 101.023C749.796 99.1734 751.646 97.3728 753.982 95.6208C756.318 93.7714 758.994 92.2628 762.012 91.0948C765.126 89.9268 768.387 89.3428 771.794 89.3428ZM769.604 105.403C765.321 105.403 761.574 106.473 758.362 108.615C755.15 110.756 752.619 113.676 750.77 117.375C749.018 120.976 748.142 125.113 748.142 129.785C748.142 134.359 749.018 138.545 750.77 142.341C752.619 146.039 755.15 148.959 758.362 151.101C761.574 153.242 765.321 154.313 769.604 154.313C773.886 154.313 777.585 153.242 780.7 151.101C783.912 148.959 786.394 146.039 788.146 142.341C789.995 138.545 790.92 134.359 790.92 129.785C790.92 125.113 789.995 120.976 788.146 117.375C786.394 113.676 783.912 110.756 780.7 108.615C777.585 106.473 773.886 105.403 769.604 105.403Z" fill="#E6F2F1"/>
</g>
<defs>
<filter id="filter0_i_170_802" x="0" y="52.007" width="137.915" height="139.906" filterUnits="userSpaceOnUse" color-interpolation-filters="sRGB">
<feFlood flood-opacity="0" result="BackgroundImageFix"/>
<feBlend mode="normal" in="SourceGraphic" in2="BackgroundImageFix" result="shape"/>
<feColorMatrix in="SourceAlpha" type="matrix" values="0 0 0 0 0 0 0 0 0 0 0 0 0 0 0 0 0 0 127 0" result="hardAlpha"/>
<feOffset/>
<feGaussianBlur stdDeviation="1.9524"/>
<feComposite in2="hardAlpha" operator="arithmetic" k2="-1" k3="1"/>
<feColorMatrix type="matrix" values="0 0 0 0 0 0 0 0 0 0.490385 0 0 0 0 0.411923 0 0 0 0.5 0"/>
<feBlend mode="normal" in2="shape" result="effect1_innerShadow_170_802"/>
</filter>
<filter id="filter1_i_170_802" x="53.3364" y="101.469" width="31.1494" height="31.1492" filterUnits="userSpaceOnUse" color-interpolation-filters="sRGB">
<feFlood flood-opacity="0" result="BackgroundImageFix"/>
<feBlend mode="normal" in="SourceGraphic" in2="BackgroundImageFix" result="shape"/>
<feColorMatrix in="SourceAlpha" type="matrix" values="0 0 0 0 0 0 0 0 0 0 0 0 0 0 0 0 0 0 127 0" result="hardAlpha"/>
<feOffset/>
<feGaussianBlur stdDeviation="1.9524"/>
<feComposite in2="hardAlpha" operator="arithmetic" k2="-1" k3="1"/>
<feColorMatrix type="matrix" values="0 0 0 0 0 0 0 0 0 0.490385 0 0 0 0 0.411923 0 0 0 0.5 0"/>
<feBlend mode="normal" in2="shape" result="effect1_innerShadow_170_802"/>
</filter>
<filter id="filter2_i_170_802" x="32.0454" y="6.10352e-05" width="73.9302" height="52.5768" filterUnits="userSpaceOnUse" color-interpolation-filters="sRGB">
<feFlood flood-opacity="0" result="BackgroundImageFix"/>
<feBlend mode="normal" in="SourceGraphic" in2="BackgroundImageFix" result="shape"/>
<feColorMatrix in="SourceAlpha" type="matrix" values="0 0 0 0 0 0 0 0 0 0 0 0 0 0 0 0 0 0 127 0" result="hardAlpha"/>
<feOffset/>
<feGaussianBlur stdDeviation="1.9524"/>
<feComposite in2="hardAlpha" operator="arithmetic" k2="-1" k3="1"/>
<feColorMatrix type="matrix" values="0 0 0 0 0 0 0 0 0 0.490385 0 0 0 0 0.411923 0 0 0 0.5 0"/>
<feBlend mode="normal" in2="shape" result="effect1_innerShadow_170_802"/>
</filter>
<filter id="filter3_i_170_802" x="194.865" y="60.8728" width="612.845" height="109.5" filterUnits="userSpaceOnUse" color-interpolation-filters="sRGB">
<feFlood flood-opacity="0" result="BackgroundImageFix"/>
<feBlend mode="normal" in="SourceGraphic" in2="BackgroundImageFix" result="shape"/>
<feColorMatrix in="SourceAlpha" type="matrix" values="0 0 0 0 0 0 0 0 0 0 0 0 0 0 0 0 0 0 127 0" result="hardAlpha"/>
<feOffset/>
<feGaussianBlur stdDeviation="1.9524"/>
<feComposite in2="hardAlpha" operator="arithmetic" k2="-1" k3="1"/>
<feColorMatrix type="matrix" values="0 0 0 0 0 0 0 0 0 0.490385 0 0 0 0 0.411923 0 0 0 0.5 0"/>
<feBlend mode="normal" in2="shape" result="effect1_innerShadow_170_802"/>
</filter>
</defs>
</svg>
