<svg width="140" height="39" viewBox="0 0 140 39" fill="none" xmlns="http://www.w3.org/2000/svg">
<g filter="url(#filter0_i_329_125)">
<path d="M25.2375 35.3218H18.344C18.344 35.3218 17.1263 35.3153 16.9419 35.2439C16.6056 35.1137 16.4935 34.903 16.4745 34.5429C16.4534 34.1419 16.864 33.5692 16.864 33.5692C16.864 33.5692 17.426 32.7097 17.7598 32.1671C18.1987 31.4537 18.4349 31.046 18.8113 30.2977C19.2952 29.3361 19.5226 28.8125 19.9018 27.8051C20.2848 26.7878 20.4471 26.1693 20.6808 25.1178C20.8227 24.4793 20.8366 24.0971 20.8366 23.4431V23.4354C20.8366 22.7393 20.8366 22.3623 20.7197 21.6905C20.5639 20.7947 20.3263 20.3026 19.8239 19.4705C19.301 18.6043 18.9562 18.1336 18.1492 17.5231C17.2976 16.8788 16.7158 16.5924 15.6956 16.2768C14.7543 15.9857 14.1872 15.9198 13.203 15.9653C12.1156 16.0155 11.4558 16.1517 10.4767 16.6274C9.69885 17.0053 9.34727 17.3284 8.68515 17.8737C8.02302 18.4189 7.90624 18.6916 7.47783 19.3147C7.04941 19.9378 6.76815 20.6375 6.5431 21.6126C6.30939 22.6252 6.2525 23.3412 6.38731 24.3388C6.58205 25.7799 6.76905 26.4704 7.24412 27.8051C8.06203 30.103 8.84096 31.3619 10.0094 33.1798C10.9781 34.687 12.5585 36.685 12.6967 36.8797C12.8349 37.0744 12.775 37.5953 12.424 37.8144C12.1402 37.9916 11.8395 38.0868 11.5672 37.8923C11.2946 37.6976 10.8633 37.1758 10.5157 36.7239C10.1262 36.2176 9.94608 35.9322 9.38619 35.6334C8.94358 35.3972 8.13989 35.3218 8.13989 35.3218C8.13989 35.3218 1.90847 35.3218 1.67476 35.205C1.03434 34.8848 0.67631 34.8497 0.311621 34.2313C0.0191441 33.7354 4.57764e-05 32.7513 4.57764e-05 32.7513L1.90844 13.1611C1.90844 13.1611 1.95181 12.3401 2.06422 12.0317C2.23928 11.5513 2.48008 11.1402 2.8821 10.8243C3.33751 10.4665 4.24521 10.3959 4.24521 10.3959C4.24521 10.3959 23.1734 10.318 23.5239 10.3959C23.8744 10.4737 24.2609 10.6222 24.6144 10.9411C24.9401 11.235 25.1207 11.4085 25.2375 11.8759C25.3544 12.3433 27.1459 31.2324 27.1459 31.2324C27.1459 31.2324 27.301 32.8119 27.2238 33.3745C27.1368 34.0081 27.0112 34.4416 26.5228 34.8545C26.1149 35.1992 25.2375 35.3218 25.2375 35.3218Z" fill="#E6F2F1"/>
</g>
<g filter="url(#filter1_i_329_125)">
<circle cx="3.07679" cy="3.07679" r="3.07679" transform="matrix(-1 0 0 1 16.7086 20.1327)" fill="#E6F2F1"/>
</g>
<g filter="url(#filter2_i_329_125)">
<path d="M20.4863 6.07288L20.9147 10.4739H17.5653C17.5653 10.4739 17.3316 7.24129 17.2537 6.73498C17.1758 6.22867 17.0162 5.59371 16.7863 5.21605C16.4651 4.68849 16.1882 4.45939 15.6958 4.0866C15.0592 3.60466 14.8 3.54134 13.9821 3.46345C13.3868 3.40675 12.736 3.41277 12.1906 3.65818C11.4117 4.0087 11.2017 4.26507 10.7106 4.90448C10.2873 5.45566 10.1264 5.95604 10.0096 6.4234C9.89274 6.89076 9.62011 10.4739 9.62011 10.4739H6.30964C6.30964 10.4739 6.46542 7.86443 6.73805 6.26762C6.87029 5.49306 6.94156 5.04536 7.24436 4.32028C7.59724 3.47526 7.86775 3.04419 8.49065 2.37294C9.07416 1.74414 9.41885 1.43241 10.1654 1.0098C10.9617 0.558981 11.4851 0.395036 12.3853 0.230867C13.2233 0.0780668 13.6833 0.0391851 14.5274 0.152974C15.2586 0.25154 15.6794 0.330647 16.3579 0.620336C17.2815 1.01467 17.7419 1.39931 18.461 2.10031C19.0189 2.64414 19.3172 2.98375 19.7073 3.65818C19.9903 4.14746 20.1352 4.43919 20.2915 4.98237C20.4111 5.39811 20.4863 6.07288 20.4863 6.07288Z" fill="#E6F2F1"/>
</g>
<g filter="url(#filter3_i_329_125)">
<path d="M43.2453 31.17C43.2453 31.69 43.0553 32.13 42.6753 32.49C42.2953 32.83 41.8553 33 41.3553 33C40.7953 33 40.3453 32.83 40.0053 32.49C39.6653 32.13 39.4953 31.69 39.4953 31.17V13.83C39.4953 13.31 39.6753 12.88 40.0353 12.54C40.3953 12.18 40.8553 12 41.4153 12C41.8953 12 42.3153 12.18 42.6753 12.54C43.0553 12.88 43.2453 13.31 43.2453 13.83V31.17ZM56.037 16.65C57.517 16.65 58.637 16.96 59.397 17.58C60.177 18.2 60.707 19.03 60.987 20.07C61.287 21.09 61.437 22.23 61.437 23.49V31.17C61.437 31.69 61.267 32.13 60.927 32.49C60.587 32.83 60.157 33 59.637 33C59.117 33 58.687 32.83 58.347 32.49C58.007 32.13 57.837 31.69 57.837 31.17V23.49C57.837 22.83 57.747 22.24 57.567 21.72C57.407 21.18 57.107 20.75 56.667 20.43C56.227 20.11 55.597 19.95 54.777 19.95C53.977 19.95 53.297 20.11 52.737 20.43C52.197 20.75 51.777 21.18 51.477 21.72C51.197 22.24 51.057 22.83 51.057 23.49V31.17C51.057 31.69 50.887 32.13 50.547 32.49C50.207 32.83 49.777 33 49.257 33C48.737 33 48.307 32.83 47.967 32.49C47.627 32.13 47.457 31.69 47.457 31.17V18.78C47.457 18.26 47.627 17.83 47.967 17.49C48.307 17.13 48.737 16.95 49.257 16.95C49.777 16.95 50.207 17.13 50.547 17.49C50.887 17.83 51.057 18.26 51.057 18.78V20.07L50.607 19.98C50.787 19.64 51.047 19.28 51.387 18.9C51.727 18.5 52.127 18.13 52.587 17.79C53.047 17.45 53.567 17.18 54.147 16.98C54.727 16.76 55.357 16.65 56.037 16.65ZM64.3981 30.51C64.1981 30.23 64.1081 29.87 64.1281 29.43C64.1481 28.99 64.4081 28.61 64.9081 28.29C65.2281 28.09 65.5681 28.01 65.9281 28.05C66.2881 28.07 66.6381 28.25 66.9781 28.59C67.5581 29.17 68.1681 29.62 68.8081 29.94C69.4481 30.26 70.2481 30.42 71.2081 30.42C71.5081 30.4 71.8381 30.36 72.1981 30.3C72.5581 30.22 72.8681 30.06 73.1281 29.82C73.4081 29.56 73.5481 29.17 73.5481 28.65C73.5481 28.21 73.3981 27.86 73.0981 27.6C72.7981 27.34 72.3981 27.12 71.8981 26.94C71.4181 26.76 70.8781 26.59 70.2781 26.43C69.6581 26.25 69.0181 26.05 68.3581 25.83C67.7181 25.61 67.1281 25.33 66.5881 24.99C66.0481 24.63 65.6081 24.16 65.2681 23.58C64.9281 23 64.7581 22.27 64.7581 21.39C64.7581 20.39 65.0381 19.54 65.5981 18.84C66.1581 18.14 66.8781 17.6 67.7581 17.22C68.6581 16.84 69.5981 16.65 70.5781 16.65C71.1981 16.65 71.8481 16.73 72.5281 16.89C73.2081 17.03 73.8581 17.27 74.4781 17.61C75.0981 17.93 75.6181 18.36 76.0381 18.9C76.2581 19.2 76.3881 19.56 76.4281 19.98C76.4681 20.4 76.2781 20.78 75.8581 21.12C75.5581 21.36 75.2081 21.47 74.8081 21.45C74.4081 21.41 74.0781 21.27 73.8181 21.03C73.4781 20.59 73.0181 20.24 72.4381 19.98C71.8781 19.72 71.2281 19.59 70.4881 19.59C70.1881 19.59 69.8581 19.63 69.4981 19.71C69.1581 19.77 68.8581 19.92 68.5981 20.16C68.3381 20.38 68.2081 20.74 68.2081 21.24C68.2081 21.7 68.3581 22.07 68.6581 22.35C68.9581 22.61 69.3581 22.83 69.8581 23.01C70.3781 23.17 70.9281 23.33 71.5081 23.49C72.1081 23.65 72.7181 23.84 73.3381 24.06C73.9581 24.28 74.5281 24.57 75.0481 24.93C75.5681 25.29 75.9881 25.76 76.3081 26.34C76.6281 26.9 76.7881 27.62 76.7881 28.5C76.7881 29.52 76.4881 30.39 75.8881 31.11C75.2881 31.83 74.5381 32.38 73.6381 32.76C72.7381 33.12 71.8181 33.3 70.8781 33.3C69.6981 33.3 68.5181 33.1 67.3381 32.7C66.1581 32.28 65.1781 31.55 64.3981 30.51ZM88.1108 16.65C89.5108 16.65 90.7608 17.01 91.8608 17.73C92.9808 18.43 93.8608 19.4 94.5008 20.64C95.1608 21.88 95.4908 23.32 95.4908 24.96C95.4908 26.6 95.1608 28.05 94.5008 29.31C93.8608 30.55 92.9908 31.53 91.8908 32.25C90.8108 32.95 89.5908 33.3 88.2308 33.3C87.4308 33.3 86.6808 33.17 85.9808 32.91C85.2808 32.65 84.6608 32.32 84.1208 31.92C83.6008 31.52 83.1908 31.12 82.8908 30.72C82.6108 30.3 82.4708 29.95 82.4708 29.67L83.4008 29.28V37.17C83.4008 37.69 83.2308 38.12 82.8908 38.46C82.5508 38.82 82.1208 39 81.6008 39C81.0808 39 80.6508 38.83 80.3108 38.49C79.9708 38.15 79.8008 37.71 79.8008 37.17V18.78C79.8008 18.26 79.9708 17.83 80.3108 17.49C80.6508 17.13 81.0808 16.95 81.6008 16.95C82.1208 16.95 82.5508 17.13 82.8908 17.49C83.2308 17.83 83.4008 18.26 83.4008 18.78V20.25L82.8908 19.98C82.8908 19.72 83.0308 19.41 83.3108 19.05C83.5908 18.67 83.9708 18.3 84.4508 17.94C84.9308 17.56 85.4808 17.25 86.1008 17.01C86.7408 16.77 87.4108 16.65 88.1108 16.65ZM87.6608 19.95C86.7808 19.95 86.0108 20.17 85.3508 20.61C84.6908 21.05 84.1708 21.65 83.7908 22.41C83.4308 23.15 83.2508 24 83.2508 24.96C83.2508 25.9 83.4308 26.76 83.7908 27.54C84.1708 28.3 84.6908 28.9 85.3508 29.34C86.0108 29.78 86.7808 30 87.6608 30C88.5408 30 89.3008 29.78 89.9408 29.34C90.6008 28.9 91.1108 28.3 91.4708 27.54C91.8508 26.76 92.0408 25.9 92.0408 24.96C92.0408 24 91.8508 23.15 91.4708 22.41C91.1108 21.65 90.6008 21.05 89.9408 20.61C89.3008 20.17 88.5408 19.95 87.6608 19.95ZM102.029 31.17C102.029 31.69 101.859 32.13 101.519 32.49C101.179 32.83 100.749 33 100.229 33C99.7087 33 99.2787 32.83 98.9387 32.49C98.5987 32.13 98.4287 31.69 98.4287 31.17V18.78C98.4287 18.26 98.5987 17.83 98.9387 17.49C99.2787 17.13 99.7087 16.95 100.229 16.95C100.749 16.95 101.179 17.13 101.519 17.49C101.859 17.83 102.029 18.26 102.029 18.78V31.17ZM100.199 15C99.5187 15 99.0387 14.89 98.7587 14.67C98.4787 14.45 98.3387 14.06 98.3387 13.5V12.93C98.3387 12.35 98.4887 11.96 98.7887 11.76C99.1087 11.54 99.5887 11.43 100.229 11.43C100.929 11.43 101.419 11.54 101.699 11.76C101.979 11.98 102.119 12.37 102.119 12.93V13.5C102.119 14.08 101.969 14.48 101.669 14.7C101.369 14.9 100.879 15 100.199 15ZM107.529 33C107.009 33 106.579 32.83 106.239 32.49C105.899 32.13 105.729 31.69 105.729 31.17V18.78C105.729 18.26 105.899 17.83 106.239 17.49C106.579 17.13 107.009 16.95 107.529 16.95C108.049 16.95 108.479 17.13 108.819 17.49C109.159 17.83 109.329 18.26 109.329 18.78V21.6L109.119 19.59C109.339 19.11 109.619 18.69 109.959 18.33C110.319 17.95 110.719 17.64 111.159 17.4C111.599 17.14 112.069 16.95 112.569 16.83C113.069 16.71 113.569 16.65 114.069 16.65C114.669 16.65 115.169 16.82 115.569 17.16C115.989 17.5 116.199 17.9 116.199 18.36C116.199 19.02 116.029 19.5 115.689 19.8C115.349 20.08 114.979 20.22 114.579 20.22C114.199 20.22 113.849 20.15 113.529 20.01C113.229 19.87 112.879 19.8 112.479 19.8C112.119 19.8 111.749 19.89 111.369 20.07C111.009 20.23 110.669 20.49 110.349 20.85C110.049 21.21 109.799 21.66 109.599 22.2C109.419 22.72 109.329 23.34 109.329 24.06V31.17C109.329 31.69 109.159 32.13 108.819 32.49C108.479 32.83 108.049 33 107.529 33ZM131.525 16.65C132.045 16.65 132.475 16.82 132.815 17.16C133.155 17.5 133.325 17.94 133.325 18.48V31.17C133.325 31.69 133.155 32.13 132.815 32.49C132.475 32.83 132.045 33 131.525 33C131.005 33 130.575 32.83 130.235 32.49C129.895 32.13 129.725 31.69 129.725 31.17V29.7L130.385 29.97C130.385 30.23 130.245 30.55 129.965 30.93C129.685 31.29 129.305 31.65 128.825 32.01C128.345 32.37 127.775 32.68 127.115 32.94C126.475 33.18 125.775 33.3 125.015 33.3C123.635 33.3 122.385 32.95 121.265 32.25C120.145 31.53 119.255 30.55 118.595 29.31C117.955 28.05 117.635 26.61 117.635 24.99C117.635 23.35 117.955 21.91 118.595 20.67C119.255 19.41 120.135 18.43 121.235 17.73C122.335 17.01 123.555 16.65 124.895 16.65C125.755 16.65 126.545 16.78 127.265 17.04C127.985 17.3 128.605 17.63 129.125 18.03C129.665 18.43 130.075 18.84 130.355 19.26C130.655 19.66 130.805 20 130.805 20.28L129.725 20.67V18.48C129.725 17.96 129.895 17.53 130.235 17.19C130.575 16.83 131.005 16.65 131.525 16.65ZM125.465 30C126.345 30 127.115 29.78 127.775 29.34C128.435 28.9 128.945 28.3 129.305 27.54C129.685 26.78 129.875 25.93 129.875 24.99C129.875 24.03 129.685 23.17 129.305 22.41C128.945 21.65 128.435 21.05 127.775 20.61C127.115 20.17 126.345 19.95 125.465 19.95C124.605 19.95 123.845 20.17 123.185 20.61C122.525 21.05 122.005 21.65 121.625 22.41C121.265 23.17 121.085 24.03 121.085 24.99C121.085 25.93 121.265 26.78 121.625 27.54C122.005 28.3 122.525 28.9 123.185 29.34C123.845 29.78 124.605 30 125.465 30Z" fill="#E6F2F1"/>
</g>
<defs>
<filter id="filter0_i_329_125" x="6.10352e-05" y="10.3613" width="27.2453" height="27.6387" filterUnits="userSpaceOnUse" color-interpolation-filters="sRGB">
<feFlood flood-opacity="0" result="BackgroundImageFix"/>
<feBlend mode="normal" in="SourceGraphic" in2="BackgroundImageFix" result="shape"/>
<feColorMatrix in="SourceAlpha" type="matrix" values="0 0 0 0 0 0 0 0 0 0 0 0 0 0 0 0 0 0 127 0" result="hardAlpha"/>
<feOffset/>
<feGaussianBlur stdDeviation="1.9524"/>
<feComposite in2="hardAlpha" operator="arithmetic" k2="-1" k3="1"/>
<feColorMatrix type="matrix" values="0 0 0 0 0 0 0 0 0 0.490385 0 0 0 0 0.411923 0 0 0 0.5 0"/>
<feBlend mode="normal" in2="shape" result="effect1_innerShadow_329_125"/>
</filter>
<filter id="filter1_i_329_125" x="10.555" y="20.1327" width="6.15359" height="6.15359" filterUnits="userSpaceOnUse" color-interpolation-filters="sRGB">
<feFlood flood-opacity="0" result="BackgroundImageFix"/>
<feBlend mode="normal" in="SourceGraphic" in2="BackgroundImageFix" result="shape"/>
<feColorMatrix in="SourceAlpha" type="matrix" values="0 0 0 0 0 0 0 0 0 0 0 0 0 0 0 0 0 0 127 0" result="hardAlpha"/>
<feOffset/>
<feGaussianBlur stdDeviation="1.9524"/>
<feComposite in2="hardAlpha" operator="arithmetic" k2="-1" k3="1"/>
<feColorMatrix type="matrix" values="0 0 0 0 0 0 0 0 0 0.490385 0 0 0 0 0.411923 0 0 0 0.5 0"/>
<feBlend mode="normal" in2="shape" result="effect1_innerShadow_329_125"/>
</filter>
<filter id="filter2_i_329_125" x="6.30963" y="0.087204" width="14.605" height="10.3867" filterUnits="userSpaceOnUse" color-interpolation-filters="sRGB">
<feFlood flood-opacity="0" result="BackgroundImageFix"/>
<feBlend mode="normal" in="SourceGraphic" in2="BackgroundImageFix" result="shape"/>
<feColorMatrix in="SourceAlpha" type="matrix" values="0 0 0 0 0 0 0 0 0 0 0 0 0 0 0 0 0 0 127 0" result="hardAlpha"/>
<feOffset/>
<feGaussianBlur stdDeviation="1.9524"/>
<feComposite in2="hardAlpha" operator="arithmetic" k2="-1" k3="1"/>
<feColorMatrix type="matrix" values="0 0 0 0 0 0 0 0 0 0.490385 0 0 0 0 0.411923 0 0 0 0.5 0"/>
<feBlend mode="normal" in2="shape" result="effect1_innerShadow_329_125"/>
</filter>
<filter id="filter3_i_329_125" x="39.4953" y="11.43" width="93.8295" height="27.57" filterUnits="userSpaceOnUse" color-interpolation-filters="sRGB">
<feFlood flood-opacity="0" result="BackgroundImageFix"/>
<feBlend mode="normal" in="SourceGraphic" in2="BackgroundImageFix" result="shape"/>
<feColorMatrix in="SourceAlpha" type="matrix" values="0 0 0 0 0 0 0 0 0 0 0 0 0 0 0 0 0 0 127 0" result="hardAlpha"/>
<feOffset/>
<feGaussianBlur stdDeviation="1.9524"/>
<feComposite in2="hardAlpha" operator="arithmetic" k2="-1" k3="1"/>
<feColorMatrix type="matrix" values="0 0 0 0 0 0 0 0 0 0.490385 0 0 0 0 0.411923 0 0 0 0.5 0"/>
<feBlend mode="normal" in2="shape" result="effect1_innerShadow_329_125"/>
</filter>
</defs>
</svg>
