<svg width="20" height="23" viewBox="0 0 20 23" fill="none" xmlns="http://www.w3.org/2000/svg">
<path fill-rule="evenodd" clip-rule="evenodd" d="M10 1.64374C5.34757 1.64374 1.42298 5.02369 1.74263 9.233C1.78848 9.83671 1.85701 10.3622 1.95039 10.7793C2.4215 12.8831 3.90029 14.9731 5.56593 16.7474C7.21739 18.5065 8.97574 19.875 9.88433 20.5387C9.95695 20.5917 10.043 20.5917 10.1157 20.5387C11.0243 19.875 12.7826 18.5065 14.4341 16.7474C16.0997 14.9731 17.5785 12.8831 18.0496 10.7793C18.143 10.3622 18.2115 9.83671 18.2574 9.233C18.577 5.02369 14.6524 1.64374 10 1.64374ZM0.0234949 9.35173C-0.384346 3.98123 4.58066 0 10 0C15.4193 0 20.3843 3.98122 19.9765 9.35173C19.9277 9.99499 19.8516 10.6031 19.7352 11.1225C19.1705 13.6448 17.4543 15.9946 15.7182 17.8438C13.968 19.7081 12.118 21.1466 11.1638 21.8436C10.4727 22.3484 9.52728 22.3484 8.8362 21.8436C7.88202 21.1466 6.03197 19.7081 4.28175 17.8438C2.54571 15.9946 0.829545 13.6448 0.264757 11.1225C0.148437 10.6031 0.072345 9.99499 0.0234949 9.35173Z" fill="#9E9E9E"/>
<path fill-rule="evenodd" clip-rule="evenodd" d="M10 8.21872C9.20671 8.21872 8.56363 8.83199 8.56363 9.5885C8.56363 10.345 9.20671 10.9583 10 10.9583C10.7933 10.9583 11.4364 10.345 11.4364 9.5885C11.4364 8.83199 10.7933 8.21872 10 8.21872ZM6.83999 9.5885C6.83999 7.92418 8.25477 6.57497 10 6.57497C11.7452 6.57497 13.16 7.92418 13.16 9.5885C13.16 11.2528 11.7452 12.602 10 12.602C8.25477 12.602 6.83999 11.2528 6.83999 9.5885Z" fill="#9E9E9E"/>
</svg>
