<svg width="28" height="7" viewBox="0 0 28 7" fill="none" xmlns="http://www.w3.org/2000/svg">
<path d="M6.06061 3.09697C6.06061 3.91834 5.74134 4.70606 5.17305 5.28686C4.60476 5.86765 3.83399 6.19394 3.0303 6.19394C2.22662 6.19394 1.45585 5.86765 0.887555 5.28686C0.319263 4.70606 0 3.91834 0 3.09697C0 2.2756 0.319263 1.48788 0.887555 0.907082C1.45585 0.326288 2.22662 0 3.0303 0C3.83399 0 4.60476 0.326288 5.17305 0.907082C5.74134 1.48788 6.06061 2.2756 6.06061 3.09697ZM16.6667 3.09697C16.6667 3.91834 16.3474 4.70606 15.7791 5.28686C15.2108 5.86765 14.4401 6.19394 13.6364 6.19394C12.8327 6.19394 12.0619 5.86765 11.4936 5.28686C10.9253 4.70606 10.6061 3.91834 10.6061 3.09697C10.6061 2.2756 10.9253 1.48788 11.4936 0.907082C12.0619 0.326288 12.8327 0 13.6364 0C14.4401 0 15.2108 0.326288 15.7791 0.907082C16.3474 1.48788 16.6667 2.2756 16.6667 3.09697ZM27.2727 3.09697C27.2727 3.91834 26.9535 4.70606 26.3852 5.28686C25.8169 5.86765 25.0461 6.19394 24.2424 6.19394C23.4387 6.19394 22.668 5.86765 22.0997 5.28686C21.5314 4.70606 21.2121 3.91834 21.2121 3.09697C21.2121 2.2756 21.5314 1.48788 22.0997 0.907082C22.668 0.326288 23.4387 0 24.2424 0C25.0461 0 25.8169 0.326288 26.3852 0.907082C26.9535 1.48788 27.2727 2.2756 27.2727 3.09697Z" fill="#616161"/>
</svg>
