<svg width="18" height="20" viewBox="0 0 18 20" fill="none" xmlns="http://www.w3.org/2000/svg">
<path d="M17.7931 9.02564C17.6897 7.69231 16.6552 6.66667 15.3103 6.5641C14.8966 6.5641 14.3793 6.46154 13.9655 6.46154V3.89744C13.9655 1.74359 12.2069 0 10.0345 0H7.96552C5.7931 0 4.03448 1.74359 4.03448 3.89744V6.46154C3.51724 6.46154 3.10345 6.5641 2.68966 6.5641C1.34483 6.66667 0.310345 7.69231 0.206897 9.02564C0.103448 10.1538 0 11.8974 0 13.1282C0 14.359 0.103448 16 0.206897 17.2308C0.310345 18.5641 1.34483 19.5897 2.68966 19.6923C4.55172 19.8974 7.03448 20 9 20C10.9655 20 13.4483 19.7949 15.3103 19.6923C16.6552 19.5897 17.6897 18.5641 17.7931 17.2308C17.8966 16.1026 18 14.4615 18 13.1282C18 11.7949 17.8966 10.2564 17.7931 9.02564ZM9.82759 14.1538C9.82759 14.5641 9.51724 14.9744 9 14.9744C8.48276 14.9744 8.17241 14.6667 8.17241 14.1538V12.1026C8.17241 11.6923 8.48276 11.2821 9 11.2821C9.51724 11.2821 9.82759 11.5897 9.82759 12.1026V14.1538ZM12.3103 6.35897C11.1724 6.25641 10.0345 6.15385 9 6.15385C7.96552 6.15385 6.82759 6.15385 5.68965 6.25641V3.89744C5.68965 2.66667 6.72414 1.64103 7.96552 1.64103H10.0345C11.2759 1.64103 12.3103 2.66667 12.3103 3.89744V6.35897Z" fill="#007F6E"/>
</svg>
