<svg width="24" height="24" viewBox="0 0 24 24" fill="none" xmlns="http://www.w3.org/2000/svg">
<path fill-rule="evenodd" clip-rule="evenodd" d="M11.1493 1.80799C5.98925 1.80799 1.80799 5.98593 1.80799 11.1375C1.80799 16.289 5.98925 20.4669 11.1493 20.4669C13.7236 20.4669 16.0531 19.4281 17.7435 17.7454C19.4416 16.0552 20.4906 13.7194 20.4906 11.1375C20.4906 5.98593 16.3093 1.80799 11.1493 1.80799ZM0 11.1375C0 4.98543 4.99269 0 11.1493 0C17.3059 0 22.2986 4.98543 22.2986 11.1375C22.2986 13.8937 21.2954 16.4171 19.6356 18.3613L23.2388 21.9603C23.592 22.3132 23.5923 22.8855 23.2395 23.2388C22.8867 23.592 22.3143 23.5923 21.9611 23.2395L18.3545 19.6371C16.4117 21.2819 13.8958 22.2749 11.1493 22.2749C4.99269 22.2749 0 17.2895 0 11.1375Z" fill="#007F6E"/>
</svg>
