<svg width="36" height="36" viewBox="0 0 36 36" fill="none" xmlns="http://www.w3.org/2000/svg">
<path d="M26.8783 21.48C26.4898 21.8565 26.3113 22.401 26.3998 22.935L27.7333 30.315C27.8458 30.9405 27.5818 31.5735 27.0583 31.935C26.5453 32.31 25.8628 32.355 25.3033 32.055L18.6598 28.59C18.4288 28.467 18.1723 28.401 17.9098 28.3935H17.5033C17.3623 28.4145 17.2243 28.4595 17.0983 28.5285L10.4533 32.01C10.1248 32.175 9.75281 32.2335 9.38831 32.175C8.50031 32.007 7.90781 31.161 8.05331 30.2685L9.38831 22.8885C9.47681 22.35 9.29831 21.8025 8.90981 21.42L3.49331 16.17C3.04031 15.7305 2.88281 15.0705 3.08981 14.475C3.29081 13.881 3.80381 13.4475 4.42331 13.35L11.8783 12.2685C12.4453 12.21 12.9433 11.865 13.1983 11.355L16.4833 4.62C16.5613 4.47 16.6618 4.332 16.7833 4.215L16.9183 4.11C16.9888 4.032 17.0698 3.9675 17.1598 3.915L17.3233 3.855L17.5783 3.75H18.2098C18.7738 3.8085 19.2703 4.146 19.5298 4.65L22.8583 11.355C23.0983 11.8455 23.5648 12.186 24.1033 12.2685L31.5583 13.35C32.1883 13.44 32.7148 13.875 32.9233 14.475C33.1198 15.0765 32.9503 15.7365 32.4883 16.17L26.8783 21.48Z" fill="#FFE70F"/>
</svg>
