<svg width="16" height="20" viewBox="0 0 16 20" fill="none" xmlns="http://www.w3.org/2000/svg">
<path d="M8 9.79592C10.7189 9.79592 12.9231 7.60303 12.9231 4.89796C12.9231 2.19289 10.7189 0 8 0C5.28106 0 3.07692 2.19289 3.07692 4.89796C3.07692 7.60303 5.28106 9.79592 8 9.79592Z" fill="#007F6E"/>
<path d="M10.5641 11.8368H5.4359C2.46154 11.8368 0 14.2858 0 17.245C0 17.9593 0.307692 18.5715 0.923077 18.8777C1.84615 19.3879 3.89744 20.0001 8 20.0001C12.1026 20.0001 14.1538 19.3879 15.0769 18.8777C15.5897 18.5715 16 17.9593 16 17.245C16 14.1838 13.5385 11.8368 10.5641 11.8368Z" fill="#007F6E"/>
</svg>
